<svg width="40" height="76" viewBox="0 0 40 76" fill="none" xmlns="http://www.w3.org/2000/svg">
<path d="M1.2191 75.1499C-0.270901 74.3599 -0.400901 73.3299 0.849099 72.0799L34.6891 38.2399C34.9247 38.0236 35.1718 37.82 35.4291 37.6299C35.1391 37.3299 34.9591 37.1199 34.7591 36.9199L0.999099 3.12991C0.73645 2.8757 0.501779 2.5941 0.299099 2.28991C0.12177 2.00815 0.0432121 1.67541 0.0758005 1.3441C0.108389 1.01278 0.250272 0.701719 0.479099 0.459912C0.721799 0.213664 1.04075 0.0568804 1.38396 0.0151134C1.72718 -0.0266535 2.07442 0.0490593 2.3691 0.229912C2.59866 0.393331 2.80989 0.581088 2.9991 0.789912C14.7991 12.5499 26.5758 24.3132 38.3291 36.0799C39.4391 37.1799 39.4391 37.9099 38.3291 39.0099L2.9991 74.3499C2.68492 74.6397 2.35077 74.907 1.9991 75.1499H1.2191Z" fill="black"/>
</svg>
