<svg width="40" height="76" viewBox="0 0 40 76" fill="none" xmlns="http://www.w3.org/2000/svg">
<path d="M37.935 75.1566C39.425 74.3566 39.555 73.3266 38.305 72.0766L4.47499 38.2366C4.26499 38.0366 4.01499 37.8666 3.72499 37.6366C4.01499 37.3266 4.20499 37.1166 4.40499 36.9166L38.185 3.12661C38.4534 2.87873 38.6917 2.60015 38.895 2.29661C39.0732 2.01381 39.1505 1.67902 39.1142 1.34673C39.0778 1.01444 38.9301 0.70423 38.695 0.466608C38.4571 0.216342 38.1402 0.055801 37.7977 0.012078C37.4552 -0.0316449 37.1081 0.0441278 36.815 0.226608C36.5664 0.384897 36.338 0.572955 36.135 0.786607L0.825 36.0766C-0.275 37.1766 -0.275 37.9066 0.825 39.0066C12.605 50.7999 24.3883 62.5799 36.175 74.3466C36.489 74.6396 36.8232 74.9103 37.175 75.1566H37.935Z" fill="black"/>
</svg>
