<svg width="23" height="23" viewBox="0 0 23 23" fill="none" xmlns="http://www.w3.org/2000/svg">
<path d="M2.13828 13.4936L10.2557 21.0719C10.5926 21.3864 11.0373 21.5616 11.5 21.5616C11.9627 21.5616 12.4074 21.3864 12.7443 21.0719L20.8617 13.4936C22.2273 12.2223 23 10.4389 23 8.57467V8.31412C23 5.17408 20.7314 2.49674 17.6363 1.98014C15.5879 1.63873 13.5035 2.30807 12.0391 3.77252L11.5 4.31158L10.9609 3.77252C9.49648 2.30807 7.41211 1.63873 5.36367 1.98014C2.26855 2.49674 0 5.17408 0 8.31412V8.57467C0 10.4389 0.772656 12.2223 2.13828 13.4936Z" fill="#D31A1A"/>
</svg>
