<svg width="40" height="37" viewBox="0 0 40 37" fill="none" xmlns="http://www.w3.org/2000/svg">
<path d="M4.42829 21.1184L4.4293 21.1194L18.5464 35.3752C18.9522 35.7848 19.4728 36 20 36C20.5272 36 21.0478 35.7848 21.4536 35.3752L35.5707 21.1194L35.5717 21.1184C37.7515 18.9235 39 15.8261 39 12.5699V12.0798C39 6.60051 35.3478 2.02518 30.4945 1.14884L4.42829 21.1184ZM4.42829 21.1184C2.24853 18.9235 1 15.8261 1 12.5699V12.0798C1 6.60051 4.65222 2.02518 9.50554 1.14884L4.42829 21.1184ZM20 6.02355L19.2657 5.22931L18.3282 4.21527C16.0022 1.69937 12.7165 0.570079 9.50579 1.1488L20 6.02355ZM20 6.02355L20.7343 5.22931M20 6.02355L20.7343 5.22931M20.7343 5.22931L21.6718 4.21527C23.9978 1.69937 27.2835 0.570079 30.4942 1.1488L20.7343 5.22931Z" stroke="white" stroke-width="2"/>
</svg>
