<svg id="Layer_1" data-name="Layer 1" xmlns="http://www.w3.org/2000/svg" viewBox="0 0 364.13 96.17"><defs><style>.cls-1{fill:#fefeff;stroke:#fefeff;stroke-miterlimit:10;stroke-width:3px;}</style></defs><title>Untitled-3</title><path class="cls-1" d="M448.9,344a29.54,29.54,0,0,1-12.36-2.44,15.76,15.76,0,0,1-7.91-7.67q-2.53-5.22-1.17-13.62l.05-.29h19.73l-.05.29a11,11,0,0,0,.07,4.61,4.85,4.85,0,0,0,1.9,2.84,6.18,6.18,0,0,0,3.54.95,7.84,7.84,0,0,0,3.89-.95,7.7,7.7,0,0,0,2.8-2.86,13.34,13.34,0,0,0,1.57-4.69l8.25-49.9h19.43l-8.25,49.9a25.83,25.83,0,0,1-5.59,12.45A30.24,30.24,0,0,1,463.67,341,35.81,35.81,0,0,1,448.9,344Z" transform="translate(-425.48 -268.78)"/><path class="cls-1" d="M499,343.91a21.73,21.73,0,0,1-8.91-1.76,10.74,10.74,0,0,1-5.42-5.24c-1.12-2.37-1.39-5.33-.8-8.92a19.34,19.34,0,0,1,2.8-7.64,18.26,18.26,0,0,1,5.16-5.2A24.09,24.09,0,0,1,498.7,312a42,42,0,0,1,8.11-1.42q4.59-.35,7.44-.85a12.18,12.18,0,0,0,4.3-1.44,3.68,3.68,0,0,0,1.73-2.49v-.2a3.19,3.19,0,0,0-1.15-3.22,6.58,6.58,0,0,0-4-1.17,9.36,9.36,0,0,0-4.74,1.24,6.31,6.31,0,0,0-2.78,3.74h-18a21.45,21.45,0,0,1,4.66-9.18,25,25,0,0,1,9.43-6.74,35.3,35.3,0,0,1,14-2.54A34.47,34.47,0,0,1,528,289.13a20.45,20.45,0,0,1,7.27,3.81,13.53,13.53,0,0,1,4.08,5.68,13.08,13.08,0,0,1,.51,7L533.56,343H515.3l1.27-7.71h-.39a20.2,20.2,0,0,1-4.78,4.95,18.07,18.07,0,0,1-5.74,2.74A26.28,26.28,0,0,1,499,343.91Zm8.5-12.4a10.67,10.67,0,0,0,4.32-.93,10.28,10.28,0,0,0,3.66-2.66,8.33,8.33,0,0,0,2-4.22l.68-4.49c-.52.19-1.09.38-1.7.56s-1.28.35-2,.51-1.42.31-2.15.44-1.49.28-2.27.44a12.78,12.78,0,0,0-3.93,1.15,7,7,0,0,0-2.47,1.95,5.78,5.78,0,0,0-1.12,2.56,3.58,3.58,0,0,0,1.05,3.47A5.8,5.8,0,0,0,507.49,331.51Z" transform="translate(-425.48 -268.78)"/><path class="cls-1" d="M541.18,343l9.08-54.59h18.56l-1.66,10.45h.58a20.26,20.26,0,0,1,7.13-8.13,18.5,18.5,0,0,1,10.35-3,14.22,14.22,0,0,1,9.36,3.05,10.13,10.13,0,0,1,3.73,8.08h.49a17.54,17.54,0,0,1,7.23-8.08,21.07,21.07,0,0,1,11.13-3.05q7.76,0,11.81,5t2.64,13.43L625.56,343H605.93l5.37-31.83a7.43,7.43,0,0,0-.95-5.62,5.11,5.11,0,0,0-4.52-2,6.8,6.8,0,0,0-5.1,2,9.58,9.58,0,0,0-2.61,5.62L592.74,343H574l5.38-31.83a7.39,7.39,0,0,0-1-5.62,5.22,5.22,0,0,0-4.59-2,6.72,6.72,0,0,0-3.57.88,7.55,7.55,0,0,0-2.66,2.64,10.62,10.62,0,0,0-1.39,4.1L560.81,343Z" transform="translate(-425.48 -268.78)"/><path class="cls-1" d="M633.13,343l9.08-54.59h18.55l-1.66,10.45h.59a20.19,20.19,0,0,1,7.13-8.13,18.5,18.5,0,0,1,10.35-3,14.21,14.21,0,0,1,9.35,3.05,10.1,10.1,0,0,1,3.73,8.08h.49a17.65,17.65,0,0,1,7.23-8.08,21.07,21.07,0,0,1,11.13-3.05q7.77,0,11.82,5t2.63,13.43l-6,36.81H697.87l5.37-31.83a7.43,7.43,0,0,0-1-5.62,5.1,5.1,0,0,0-4.52-2,6.8,6.8,0,0,0-5.1,2,9.7,9.7,0,0,0-2.61,5.62L684.69,343H665.94l5.37-31.83a7.34,7.34,0,0,0-1-5.62,5.22,5.22,0,0,0-4.59-2,6.66,6.66,0,0,0-3.56.88,7.47,7.47,0,0,0-2.66,2.64,10.46,10.46,0,0,0-1.39,4.1L652.75,343Z" transform="translate(-425.48 -268.78)"/><path class="cls-1" d="M731.71,363.44a33.5,33.5,0,0,1-6.32-.46,25.19,25.19,0,0,1-5.11-1.39l6.55-14,.24.1a14.11,14.11,0,0,0,5.84,1,5.11,5.11,0,0,0,4-2.3l.69-1-9.77-57h19.83l2.44,37.8h.58l15.24-37.8h21.29l-29.69,59.18a33.47,33.47,0,0,1-5.64,8.08,24.24,24.24,0,0,1-8.32,5.67A30.48,30.48,0,0,1,731.71,363.44Z" transform="translate(-425.48 -268.78)"/></svg>