<svg width="23" height="23" viewBox="0 0 23 23" fill="none" xmlns="http://www.w3.org/2000/svg">
<path d="M10.1434 21.0326L10.0311 20.9293L2.16074 13.6205C0.781641 12.3402 0 10.5434 0 8.66114V8.51289C0 5.35039 2.24609 2.63711 5.35469 2.04414C7.12461 1.70274 8.93496 2.11153 10.377 3.12676C10.7812 3.41426 11.1586 3.74668 11.5 4.12852C11.6887 3.91289 11.8908 3.71524 12.1064 3.53106C12.2727 3.38731 12.4434 3.25254 12.623 3.12676C14.065 2.11153 15.8754 1.70274 17.6453 2.03965C20.7539 2.63262 23 5.35039 23 8.51289V8.66114C23 10.5434 22.2184 12.3402 20.8393 13.6205L12.9689 20.9293L12.8566 21.0326C12.4883 21.374 12.0031 21.5672 11.5 21.5672C10.9969 21.5672 10.5117 21.3785 10.1434 21.0326ZM10.7408 6.51387C10.7229 6.50039 10.7094 6.48243 10.6959 6.46446L9.89629 5.56602L9.8918 5.56153C8.8541 4.39805 7.28633 3.86797 5.75898 4.15996C3.66562 4.55977 2.15625 6.3836 2.15625 8.51289V8.66114C2.15625 9.94141 2.69082 11.1678 3.62969 12.0393L11.5 19.3481L19.3703 12.0393C20.3092 11.1678 20.8438 9.94141 20.8438 8.66114V8.51289C20.8438 6.38809 19.3344 4.55977 17.2455 4.15996C15.7182 3.86797 14.1459 4.40254 13.1127 5.56153C13.1127 5.56153 13.1127 5.56153 13.1082 5.56602C13.1037 5.57051 13.1082 5.56602 13.1037 5.57051L12.3041 6.46895C12.2906 6.48692 12.2727 6.50039 12.2592 6.51836C12.057 6.72051 11.783 6.83282 11.5 6.83282C11.217 6.83282 10.943 6.72051 10.7408 6.51836V6.51387Z" fill="white"/>
</svg>
