<svg width="33" height="32" viewBox="0 0 33 32" fill="none" xmlns="http://www.w3.org/2000/svg">
<path d="M28.7056 9.33412C28.4752 8.93494 28.1453 8.60229 27.7481 8.36861C27.3508 8.13493 26.8998 8.0082 26.439 8.00078H9.37229L8.59896 4.98745C8.52082 4.69657 8.34651 4.44071 8.10439 4.26154C7.86228 4.08238 7.56664 3.99047 7.26563 4.00078H4.59896C4.24534 4.00078 3.9062 4.14126 3.65615 4.39131C3.4061 4.64135 3.26563 4.98049 3.26562 5.33412C3.26563 5.68774 3.4061 6.02688 3.65615 6.27692C3.9062 6.52697 4.24534 6.66745 4.59896 6.66745H6.25229L9.93229 20.3474C10.0104 20.6383 10.1847 20.8942 10.4269 21.0734C10.669 21.2525 10.9646 21.3444 11.2656 21.3341H23.2656C23.5118 21.3334 23.7531 21.2645 23.9625 21.135C24.172 21.0056 24.3415 20.8207 24.4523 20.6008L28.8256 11.8541C29.0152 11.4568 29.1034 11.0187 29.0825 10.579C29.0615 10.1393 28.9321 9.71162 28.7056 9.33412Z" fill="#58606A"/>
<path d="M10.5996 28C11.7042 28 12.5996 27.1046 12.5996 26C12.5996 24.8954 11.7042 24 10.5996 24C9.49504 24 8.59961 24.8954 8.59961 26C8.59961 27.1046 9.49504 28 10.5996 28Z" fill="#58606A"/>
<path d="M23.9316 28C25.0362 28 25.9316 27.1046 25.9316 26C25.9316 24.8954 25.0362 24 23.9316 24C22.8271 24 21.9316 24.8954 21.9316 26C21.9316 27.1046 22.8271 28 23.9316 28Z" fill="#58606A"/>
</svg>
