<svg width="121" height="32" viewBox="0 0 121 32" fill="none" xmlns="http://www.w3.org/2000/svg">
<mask id="mask0_1854_7728" style="mask-type:luminance" maskUnits="userSpaceOnUse" x="3" y="6" width="115" height="25">
<path d="M117.903 6.22266H3.55469V30.2227H117.903V6.22266Z" fill="white"/>
</mask>
<g mask="url(#mask0_1854_7728)">
<path d="M66.0953 28.1516H69.53C69.9266 28.1857 70.3258 28.1358 70.7018 28.005C71.0777 27.8741 71.4217 27.6654 71.7113 27.3924C72.2128 26.7805 72.4626 26.0006 72.41 25.2111V25.0564H69.4056C68.4622 25.109 67.5184 24.9618 66.6358 24.6244C65.8186 24.3074 65.0834 23.8104 64.4847 23.1702C63.8655 22.4955 63.3923 21.7002 63.0945 20.8342C62.752 19.8443 62.5842 18.8025 62.5985 17.7551C62.4784 15.7966 63.109 13.866 64.362 12.356C65.014 11.6898 65.8022 11.1723 66.6727 10.8388C67.5431 10.5052 68.4753 10.3636 69.4056 10.4236H74.602V25.0564C74.6522 25.7538 74.5618 26.4542 74.3361 27.116C74.1104 27.7778 73.7541 28.3875 73.2882 28.9089C72.7978 29.3645 72.2201 29.716 71.5901 29.9421C70.96 30.1682 70.2907 30.2643 69.6225 30.2244H65.0429L66.0953 28.1516ZM69.3433 12.4964C68.7291 12.4592 68.1144 12.5625 67.546 12.7984C66.9777 13.0344 66.4706 13.3968 66.0633 13.8582C65.2325 14.9813 64.8274 16.363 64.9202 17.7569C64.8333 19.143 65.2325 20.5161 66.0491 21.6396C66.4348 22.0959 66.9208 22.4567 67.4692 22.6939C68.0176 22.931 68.6134 23.0381 69.21 23.0067H72.3051V12.4964H69.3433Z" fill="#1D1D1B"/>
<path d="M76.9827 25.0893V15.6528C76.9761 14.9311 77.0965 14.2138 77.3382 13.5337C77.5544 12.921 77.8918 12.3581 78.3302 11.8786C78.7604 11.4201 79.2818 11.0568 79.8609 10.8119C80.4876 10.549 81.1617 10.4177 81.8413 10.4262H85.244L84.1933 12.4991H81.996C81.6286 12.4852 81.2626 12.553 80.9245 12.6975C80.5864 12.8419 80.2845 13.0595 80.0405 13.3346C79.5216 13.9574 79.2563 14.7526 79.2973 15.5622V25.0911L76.9827 25.0893Z" fill="#1D1D1B"/>
<path d="M89.7444 25.0893C89.0555 25.1073 88.3706 24.9808 87.7337 24.7178C87.2107 24.495 86.7415 24.1629 86.3577 23.7435C85.9986 23.3446 85.7251 22.8763 85.5541 22.3675C85.3804 21.8599 85.2915 21.3272 85.291 20.7907C85.2933 20.2642 85.3822 19.7416 85.5541 19.244C85.7247 18.735 85.9982 18.2667 86.3577 17.868C86.7415 17.4487 87.2107 17.1165 87.7337 16.8938C88.3707 16.6311 89.0556 16.5045 89.7444 16.5222H95.6839V15.404C95.7085 15.0142 95.6557 14.6235 95.5285 14.2543C95.4012 13.885 95.2021 13.5447 94.9426 13.2529C94.657 12.9884 94.3206 12.7848 93.9539 12.6546C93.5871 12.5244 93.1976 12.4703 92.8092 12.4955H86.8697L87.9204 10.4227H92.747C93.4563 10.3705 94.1688 10.4598 94.8433 10.6853C95.5177 10.9109 96.1407 11.2681 96.6759 11.7364C97.1388 12.235 97.4932 12.8243 97.7166 13.4669C97.9399 14.1095 98.0275 14.7915 97.9737 15.4698V25.0911L89.7444 25.0893ZM89.8066 18.5293C89.4965 18.5091 89.1861 18.5631 88.9011 18.6867C88.616 18.8104 88.3645 19.0002 88.1675 19.2404C87.8102 19.6732 87.6135 20.216 87.6106 20.7771C87.6077 21.3382 87.7988 21.8831 88.1515 22.3195C88.3428 22.5554 88.588 22.7418 88.8665 22.8631C89.1449 22.9844 89.4484 23.037 89.7515 23.0164H95.691V18.5293H89.8066Z" fill="#1D1D1B"/>
<path d="M115.583 25.0891V15.0962C115.583 13.3623 114.768 12.4959 113.137 12.4971H110.199V25.0891H107.911V12.4971H102.62V25.0891H100.33V10.4242H113.358C113.998 10.4166 114.633 10.5318 115.23 10.7637C115.773 10.975 116.264 11.302 116.668 11.722C117.067 12.1463 117.378 12.6461 117.582 13.1922C117.804 13.7909 117.914 14.4255 117.907 15.0642V25.0873L115.583 25.0891Z" fill="#1D1D1B"/>
<path d="M3.55455 24.9729H14.0648V21.076H8.21055V6.22266C6.93985 6.26031 5.73599 6.80051 4.86311 7.72472C3.99023 8.64893 3.51962 9.88166 3.55455 11.1524V24.9729ZM31.4354 24.9729H39.3785L41.3554 21.076H36.0879V13.5898H36.1999C36.6805 13.5888 37.1412 13.3975 37.4811 13.0576C37.8209 12.7178 38.0123 12.2571 38.0132 11.7764V10.532H36.0879V6.22266H31.4354V10.532H29.8088V13.5898H31.4354V24.9729ZM39.1901 13.7995V15.9151C39.801 15.948 40.4118 15.8491 40.9811 15.6252C41.5504 15.4013 42.0649 15.0575 42.4897 14.6173C43.2612 13.4903 43.6256 12.1339 43.5225 10.772V6.22266H39.1901V10.3115H40.9252V11.4227C40.964 12.0133 40.8253 12.6021 40.527 13.1133C40.3649 13.3147 40.1623 13.4797 39.9323 13.5977C39.7023 13.7156 39.45 13.7838 39.1919 13.7978M24.4079 16.2262H20.319V14.324H24.4079V16.2262ZM16.4185 24.9729H24.3012C25.3635 24.9715 26.3819 24.5488 27.1331 23.7977C27.8843 23.0465 28.3069 22.0281 28.3083 20.9658V20.1249H24.4132V21.076H20.3154V19.1738H28.3154V14.5515C28.3159 14.0242 28.2124 13.5019 28.0109 13.0145C27.8093 12.5272 27.5137 12.0844 27.1408 11.7114C26.768 11.3384 26.3253 11.0426 25.8381 10.8408C25.3508 10.639 24.8286 10.5353 24.3012 10.5355H20.4257C19.363 10.537 18.3444 10.9598 17.5931 11.7114C16.8419 12.4629 16.4195 13.4818 16.4185 14.5444V24.9729ZM42.5732 24.9729H52.3065C53.3689 24.9715 54.3873 24.5488 55.1384 23.7977C55.8896 23.0465 56.3122 22.0281 56.3137 20.9658V16.3435H48.8061V14.4324H54.271L56.2479 10.5355H48.9181C47.8553 10.537 46.8365 10.9598 46.085 11.7113C45.3334 12.4628 44.9106 13.4816 44.9092 14.5444V19.1667H52.4168V21.0689H44.5448L42.5732 24.9729Z" fill="#1D1D1B"/>
</g>
</svg>
