<svg width="32" height="32" viewBox="0 0 32 32" fill="none" xmlns="http://www.w3.org/2000/svg">
<path d="M16.0013 14.6667C17.0561 14.6667 18.0873 14.3539 18.9643 13.7678C19.8414 13.1818 20.525 12.3489 20.9287 11.3743C21.3323 10.3998 21.4379 9.32742 21.2322 8.29285C21.0264 7.25829 20.5184 6.30798 19.7725 5.5621C19.0267 4.81622 18.0763 4.30827 17.0418 4.10248C16.0072 3.89669 14.9349 4.00231 13.9603 4.40598C12.9858 4.80965 12.1528 5.49323 11.5668 6.37029C10.9808 7.24736 10.668 8.2785 10.668 9.33334C10.668 10.7478 11.2299 12.1044 12.2301 13.1046C13.2303 14.1048 14.5868 14.6667 16.0013 14.6667Z" fill="#58606A"/>
<path d="M24.0013 28.0007C24.3549 28.0007 24.6941 27.8602 24.9441 27.6101C25.1942 27.3601 25.3346 27.0209 25.3346 26.6673C25.3346 24.192 24.3513 21.818 22.601 20.0677C20.8506 18.3173 18.4767 17.334 16.0013 17.334C13.5259 17.334 11.152 18.3173 9.40164 20.0677C7.6513 21.818 6.66797 24.192 6.66797 26.6673C6.66797 27.0209 6.80844 27.3601 7.05849 27.6101C7.30854 27.8602 7.64768 28.0007 8.0013 28.0007H24.0013Z" fill="#58606A"/>
</svg>
