<svg width="33" height="32" viewBox="0 0 33 32" fill="none" xmlns="http://www.w3.org/2000/svg">
<path d="M28.4141 25.72L23.8808 21.2C25.3434 19.3366 26.1371 17.0355 26.1341 14.6667C26.1341 12.557 25.5085 10.4947 24.3365 8.74059C23.1644 6.98646 21.4985 5.61929 19.5494 4.81196C17.6003 4.00462 15.4556 3.79339 13.3865 4.20496C11.3174 4.61654 9.41674 5.63244 7.92498 7.1242C6.43322 8.61596 5.41732 10.5166 5.00574 12.5857C4.59417 14.6548 4.8054 16.7995 5.61274 18.7486C6.42007 20.6977 7.78725 22.3636 9.54137 23.5357C11.2955 24.7077 13.3578 25.3333 15.4675 25.3333C17.8363 25.3363 20.1374 24.5426 22.0008 23.08L26.5208 27.6133C26.6447 27.7383 26.7922 27.8375 26.9547 27.9052C27.1172 27.9729 27.2914 28.0077 27.4675 28.0077C27.6435 28.0077 27.8177 27.9729 27.9802 27.9052C28.1427 27.8375 28.2902 27.7383 28.4141 27.6133C28.5391 27.4894 28.6383 27.3419 28.706 27.1794C28.7737 27.017 28.8085 26.8427 28.8085 26.6667C28.8085 26.4907 28.7737 26.3164 28.706 26.1539C28.6383 25.9914 28.5391 25.844 28.4141 25.72ZM7.46745 14.6667C7.46745 13.0844 7.93664 11.5377 8.8157 10.2221C9.69475 8.90652 10.9442 7.88114 12.406 7.27563C13.8678 6.67013 15.4763 6.51171 17.0282 6.82039C18.58 7.12907 20.0055 7.891 21.1243 9.00982C22.2431 10.1286 23.0051 11.5541 23.3137 13.1059C23.6224 14.6578 23.464 16.2663 22.8585 17.7281C22.253 19.1899 21.2276 20.4394 19.912 21.3184C18.5964 22.1975 17.0497 22.6667 15.4675 22.6667C13.3457 22.6667 11.3109 21.8238 9.8106 20.3235C8.31031 18.8232 7.46745 16.7884 7.46745 14.6667Z" fill="#58606A"/>
</svg>
