<svg width="32" height="32" viewBox="0 0 32 32" fill="none" xmlns="http://www.w3.org/2000/svg">
<path d="M26.7333 14.666H5.26667C4.56711 14.666 4 15.2331 4 15.9327V16.066C4 16.7656 4.56711 17.3327 5.26667 17.3327H26.7333C27.4329 17.3327 28 16.7656 28 16.066V15.9327C28 15.2331 27.4329 14.666 26.7333 14.666Z" fill="#58606A"/>
<path d="M26.7333 21.334H5.26667C4.56711 21.334 4 21.9011 4 22.6007V22.734C4 23.4335 4.56711 24.0007 5.26667 24.0007H26.7333C27.4329 24.0007 28 23.4335 28 22.734V22.6007C28 21.9011 27.4329 21.334 26.7333 21.334Z" fill="#58606A"/>
<path d="M26.7333 8H5.26667C4.56711 8 4 8.56711 4 9.26667V9.4C4 10.0996 4.56711 10.6667 5.26667 10.6667H26.7333C27.4329 10.6667 28 10.0996 28 9.4V9.26667C28 8.56711 27.4329 8 26.7333 8Z" fill="#58606A"/>
</svg>
