<svg width="32" height="33" viewBox="0 0 32 33" fill="none" xmlns="http://www.w3.org/2000/svg">
<path d="M17.8799 16.1129L23.6133 10.3929C23.8643 10.1418 24.0054 9.80128 24.0054 9.44621C24.0054 9.09114 23.8643 8.75062 23.6133 8.49954C23.3622 8.24847 23.0217 8.10742 22.6666 8.10742C22.3115 8.10742 21.971 8.24847 21.7199 8.49954L15.9999 14.2329L10.2799 8.49954C10.0288 8.24847 9.68832 8.10742 9.33325 8.10742C8.97818 8.10742 8.63766 8.24847 8.38659 8.49954C8.13551 8.75062 7.99446 9.09114 7.99446 9.44621C7.99446 9.80128 8.13551 10.1418 8.38659 10.3929L14.1199 16.1129L8.38659 21.8329C8.26161 21.9568 8.16242 22.1043 8.09473 22.2668C8.02704 22.4293 7.99219 22.6035 7.99219 22.7795C7.99219 22.9556 8.02704 23.1298 8.09473 23.2923C8.16242 23.4548 8.26161 23.6023 8.38659 23.7262C8.51054 23.8512 8.658 23.9504 8.82048 24.0181C8.98296 24.0858 9.15724 24.1206 9.33325 24.1206C9.50927 24.1206 9.68354 24.0858 9.84602 24.0181C10.0085 23.9504 10.156 23.8512 10.2799 23.7262L15.9999 17.9929L21.7199 23.7262C21.8439 23.8512 21.9913 23.9504 22.1538 24.0181C22.3163 24.0858 22.4906 24.1206 22.6666 24.1206C22.8426 24.1206 23.0169 24.0858 23.1794 24.0181C23.3418 23.9504 23.4893 23.8512 23.6133 23.7262C23.7382 23.6023 23.8374 23.4548 23.9051 23.2923C23.9728 23.1298 24.0077 22.9556 24.0077 22.7795C24.0077 22.6035 23.9728 22.4293 23.9051 22.2668C23.8374 22.1043 23.7382 21.9568 23.6133 21.8329L17.8799 16.1129Z" fill="#58606A"/>
</svg>
