<svg width="162" height="83" viewBox="0 0 162 83" fill="none" xmlns="http://www.w3.org/2000/svg">
<path d="M10 25C10 16.7157 16.7157 10 25 10H127C133.627 10 139 15.3726 139 22V61C139 67.6274 133.627 73 127 73H23C15.8203 73 10 67.1797 10 60V25Z" fill="url(#paint0_linear_1275_12877)"/>
<path d="M152 37C152 34.7909 153.791 33 156 33C159.314 33 162 35.6863 162 39V45C162 48.3137 159.314 51 156 51C153.791 51 152 49.2091 152 47V37Z" fill="url(#paint1_linear_1275_12877)"/>
<path d="M27.08 41.2C25.78 42.86 23.76 43.96 21.28 44V40.98C23.26 40.86 24.68 39.42 25.14 37.54H21.64V34.5H25.2V32.78H28.64V34.5H32.2V37.54H28.62C28.58 37.9 28.5 38.24 28.4 38.58L33.04 41.52L31.22 43.98L27.08 41.2ZM34.16 33H37.54V50.08H34.16V33ZM28.54 46.18H28.76C30.34 46.18 32.12 45.98 33.18 45.5V48.6C32.12 49.08 30.4 49.28 28.7 49.28H20.98V46.18H25.18V43.64H28.54V46.18ZM54.0583 33H57.2183V50.08H54.0583V42.48H52.6383V49.78H49.5183V33.08H52.6383V39.28H54.0583V33ZM43.7783 46.32H44.7383C46.0783 46.32 47.6783 46.12 48.7183 45.74V48.66C47.6983 49.08 45.8783 49.28 44.4383 49.28H40.5183V33.4H47.9783V36.36H43.7783V46.32ZM70.522 33.06C74.182 33.06 76.342 35.22 76.342 38.18C76.342 39.88 75.522 41.34 72.662 44.3L70.322 46.72H76.662V49.8H65.002V47.72L70.342 42.22C72.302 40.2 72.762 39.14 72.762 38.22C72.762 37.02 72.102 36.22 70.522 36.22C69.042 36.22 68.242 37.42 68.242 38.66H64.662C64.662 35.46 67.082 33.06 70.522 33.06ZM89.3419 33.5V35.66L83.2819 49.8H79.4819L85.1019 36.66H78.1419V33.5H89.3419ZM104.061 33H107.441V50.08H104.061V33ZM99.2014 33.46C99.2014 36 98.9614 38.28 98.5414 40.26L103.601 47.3L100.861 49.26L97.3414 44.16C95.9014 47.44 93.7014 49.26 91.0814 49.28V45.8C93.8214 45.48 95.7414 40.48 95.7614 33.34L99.2014 33.46ZM126.2 36.4H128.2V39.68H126.2V45.64H122.82V33H126.2V36.4ZM120.64 35.94C120.64 40.9 116.32 43.26 110.46 43.26V40.28C114.44 40.24 117.2 38.8 117.2 36.5V36.12H110.46V33.2H120.64V35.94ZM114.56 44.16V47.04H126.44V50.08H111.12V44.16H114.56Z" fill="#1E2226"/>
<rect x="3" y="3" width="143" height="77" rx="21" stroke="url(#paint2_linear_1275_12877)" stroke-width="6"/>
<defs>
<linearGradient id="paint0_linear_1275_12877" x1="15.3414" y1="75.5958" x2="137.179" y2="-1.42237" gradientUnits="userSpaceOnUse">
<stop stop-color="#FFE0F2"/>
<stop offset="0.0677083" stop-color="#F9E0F7"/>
<stop offset="0.203125" stop-color="#F1E0FA"/>
<stop offset="0.302083" stop-color="#E9E1FD"/>
<stop offset="0.453125" stop-color="#E0E2FF"/>
<stop offset="0.5625" stop-color="#D7E5FF"/>
<stop offset="0.731113" stop-color="#CFE8FF"/>
<stop offset="0.83686" stop-color="#C8EAFF"/>
<stop offset="0.888954" stop-color="#C0F0FF"/>
<stop offset="0.953884" stop-color="#B8F5FF"/>
<stop offset="1" stop-color="#B2FAFF"/>
</linearGradient>
<linearGradient id="paint1_linear_1275_12877" x1="152.414" y1="51.7417" x2="165.255" y2="49.5393" gradientUnits="userSpaceOnUse">
<stop stop-color="#FFE0F2"/>
<stop offset="0.0677083" stop-color="#F9E0F7"/>
<stop offset="0.203125" stop-color="#F1E0FA"/>
<stop offset="0.302083" stop-color="#E9E1FD"/>
<stop offset="0.453125" stop-color="#E0E2FF"/>
<stop offset="0.5625" stop-color="#D7E5FF"/>
<stop offset="0.731113" stop-color="#CFE8FF"/>
<stop offset="0.83686" stop-color="#C8EAFF"/>
<stop offset="0.888954" stop-color="#C0F0FF"/>
<stop offset="0.953884" stop-color="#B8F5FF"/>
<stop offset="1" stop-color="#B2FAFF"/>
</linearGradient>
<linearGradient id="paint2_linear_1275_12877" x1="6.16954" y1="86.4199" x2="156.85" y2="2.91172" gradientUnits="userSpaceOnUse">
<stop stop-color="#FFE0F2"/>
<stop offset="0.0677083" stop-color="#F9E0F7"/>
<stop offset="0.203125" stop-color="#F1E0FA"/>
<stop offset="0.302083" stop-color="#E9E1FD"/>
<stop offset="0.453125" stop-color="#E0E2FF"/>
<stop offset="0.5625" stop-color="#D7E5FF"/>
<stop offset="0.731113" stop-color="#CFE8FF"/>
<stop offset="0.83686" stop-color="#C8EAFF"/>
<stop offset="0.888954" stop-color="#C0F0FF"/>
<stop offset="0.953884" stop-color="#B8F5FF"/>
<stop offset="1" stop-color="#B2FAFF"/>
</linearGradient>
</defs>
</svg>
