<svg width="138" height="134" viewBox="0 0 138 134" fill="none" xmlns="http://www.w3.org/2000/svg">
<path d="M1.58633 81.2423L34.2651 85.8367C34.9481 85.9327 35.3311 86.6749 35.0137 87.2872L19.513 117.192C19.0442 118.096 20.0701 119.041 20.9328 118.499L55.6673 96.6785C56.2354 96.3217 56.9867 96.6143 57.1638 97.2613L66.947 133.003C67.2241 134.015 68.6752 133.971 68.8903 132.943L76.3248 97.4251C76.4708 96.728 77.278 96.4025 77.8666 96.8035L106.55 116.342C107.398 116.92 108.462 115.998 108.012 115.076L94.5496 87.5438C94.2165 86.8625 94.7332 86.0729 95.4908 86.1054L136.158 87.8513C137.193 87.8958 137.605 86.532 136.719 85.9965L103.024 65.6287C102.414 65.2595 102.375 64.3876 102.951 63.966L132.284 42.4937C133.156 41.8552 132.535 40.4791 131.479 40.7099L101.332 47.2989C100.607 47.4572 99.9684 46.7994 100.148 46.0798L108.832 11.2824C109.075 10.3099 107.895 9.6248 107.171 10.3175L81.8461 34.533C81.29 35.0647 80.3669 34.7956 80.1837 34.0484L72.2228 1.58008C71.9799 0.589611 70.5841 0.555462 70.2931 1.53287L60.5789 34.1604C60.3655 34.877 59.4698 35.1145 58.9294 34.5978L33.8594 10.6261C33.1115 9.91093 31.9029 10.6636 32.2148 11.6503L43.0843 46.0341C43.3132 46.7584 42.6828 47.4635 41.9374 47.3166L7.42147 40.5149C6.38735 40.3111 5.78228 41.6391 6.61464 42.2857L34.3152 63.8049C34.9188 64.2737 34.7946 65.2189 34.0904 65.516L1.33693 79.3307C0.40165 79.7251 0.581149 81.101 1.58633 81.2423Z" fill="url(#paint0_linear_1174_15091)"/>
<defs>
<linearGradient id="paint0_linear_1174_15091" x1="33.6813" y1="11.9" x2="109.179" y2="116.358" gradientUnits="userSpaceOnUse">
<stop stop-color="#BE9AF6"/>
<stop offset="1" stop-color="#A1B5F3"/>
</linearGradient>
</defs>
</svg>
