<svg width="178" height="149" viewBox="0 0 178 149" fill="none" xmlns="http://www.w3.org/2000/svg">
<path d="M122.871 59.8348C122.318 59.0424 122.081 58.0477 122.288 57.034C122.939 53.834 124.344 51.2146 126.348 49.4665C128.471 47.6159 131.167 46.8407 133.755 47.3311C138.297 48.1915 142.106 52.9949 140.581 60.5121C139.99 63.4359 140.853 64.8355 141.318 64.9194C141.779 65.0105 143.126 64.0323 143.721 61.1088C144.371 57.9088 145.776 55.2894 147.781 53.5377C149.903 51.687 152.6 50.9081 155.187 51.4022C159.728 52.2701 163.538 57.0697 162.01 64.5792C161.579 66.7103 161.935 67.8837 162.188 68.3886C162.396 68.7922 162.614 68.9641 162.747 68.9903C163.208 69.0739 164.554 68.1105 165.149 65.1796C165.563 63.1558 167.588 61.8332 169.683 62.2374C171.775 62.6338 173.138 64.589 172.724 66.6202C171.203 74.1304 165.803 77.1875 161.258 76.3231C156.709 75.4546 152.906 70.6556 154.428 63.138C154.862 61.0073 154.501 59.8447 154.249 59.3361C154.044 58.9328 153.824 58.7569 153.694 58.731C153.229 58.6433 151.887 59.6145 151.292 62.5454C149.767 70.0552 144.371 73.1126 139.825 72.2482C135.284 71.3841 131.474 66.5845 133.003 59.0712C133.433 56.9402 133.073 55.7702 132.824 55.2619C132.613 54.8542 132.395 54.686 132.266 54.6602C131.805 54.5728 130.458 55.5437 129.863 58.4708C129.45 60.4909 127.421 61.8169 125.33 61.4131C124.285 61.2206 123.42 60.6269 122.871 59.8348Z" fill="#AA8DD8"/>
<path d="M51.7242 118.542C53.2096 126.064 49.3718 130.845 44.8216 131.679C40.2753 132.513 34.8898 129.43 33.4118 121.912C32.8374 118.977 31.4989 117.999 31.0386 118.077C30.5734 118.165 29.6971 119.558 30.276 122.486C31.754 130.003 27.9163 134.785 23.3699 135.619C18.8191 136.46 13.4419 133.37 11.9604 125.848C11.3857 122.917 10.0437 121.935 9.58236 122.023C9.12138 122.109 8.24536 123.497 8.82009 126.429C9.2167 128.449 7.84379 130.411 5.75187 130.795C3.65644 131.174 1.63624 129.846 1.23645 127.818C-0.241908 120.304 3.5885 115.519 8.1432 114.678C12.6895 113.844 18.067 116.93 19.5482 124.455C20.1265 127.391 21.4611 128.369 21.9262 128.28C22.3869 128.199 23.2667 126.81 22.6917 123.883C21.2105 116.357 25.0402 111.579 29.5984 110.742C34.1451 109.904 39.5226 112.991 41.008 120.513C41.5792 123.44 42.9253 124.419 43.3821 124.337C43.8473 124.249 44.723 122.864 44.1483 119.932C43.7485 117.904 45.1242 115.953 47.2165 115.566C49.3045 115.182 51.3244 116.514 51.7242 118.542Z" fill="#77B255"/>
<path d="M64.6503 90.9025C64.7481 89.8084 65.3409 88.7707 66.3529 88.1131C68.1293 86.9684 70.5249 87.4353 71.7087 89.1467C72.3092 90.0143 86.2855 110.682 79.7963 137.693C79.3142 139.703 77.2415 140.954 75.1636 140.488C73.0896 140.022 71.7798 138.03 72.279 136.002C77.987 112.135 65.4115 93.4821 65.2845 93.299C64.7772 92.5592 64.5773 91.7176 64.6503 90.9025Z" fill="#AA8DD8"/>
<path d="M86.3936 28.0595C86.4252 27.706 86.5114 27.3495 86.651 27.0013C87.4387 25.0838 89.6809 24.1468 91.6626 24.909C105.797 30.341 128.613 36.1027 135.071 31.912C135.803 31.4446 136.547 30.7083 136.567 28.8803C136.602 25.3663 128.961 25.0599 128.884 25.0572C126.751 25.036 125.042 23.3407 125.068 21.2806C125.123 19.1893 126.842 17.5636 128.975 17.5885C134.313 17.6495 144.385 20.1017 144.286 28.9644C144.242 32.9201 142.539 36.0657 139.371 38.1212C127.232 45.9942 95.1292 34.2804 88.8131 31.8541C87.191 31.2308 86.2504 29.6598 86.3936 28.0595Z" fill="#77B255"/>
<path d="M105.157 88.0279C104.882 91.1109 107.241 93.8265 110.427 94.0934C113.613 94.3603 116.42 92.0774 116.696 88.9944C116.972 85.9114 114.612 83.1958 111.426 82.9289C108.24 82.662 105.433 84.9449 105.157 88.0279Z" fill="#5C913B"/>
<path d="M72.2561 12.7979C71.8884 16.9086 75.0342 20.5294 79.2825 20.8853C83.5309 21.2411 87.273 18.1972 87.6407 14.0866C88.0085 9.97591 84.8627 6.35508 80.6143 5.99922C76.366 5.64337 72.6239 8.68725 72.2561 12.7979Z" fill="#9266CC"/>
<path d="M58.257 125.98C57.9812 129.063 60.3406 131.778 63.5268 132.045C66.7131 132.312 69.5197 130.029 69.7955 126.946C70.0713 123.863 67.712 121.147 64.5257 120.881C61.3394 120.614 58.5329 122.897 58.257 125.98Z" fill="#5C913B"/>
<path d="M15.1047 88.6236C14.8289 91.7066 17.1882 94.4222 20.3745 94.6891C23.5607 94.956 26.3673 92.6731 26.6431 89.5901C26.919 86.5071 24.5596 83.7915 21.3733 83.5246C18.1871 83.2577 15.3805 85.5406 15.1047 88.6236Z" fill="#5C913B"/>
<path d="M127.966 102.356C129.225 106.331 133.534 108.609 137.59 107.443C141.646 106.278 143.913 102.11 142.653 98.1347C141.394 94.1593 137.085 91.8814 133.029 93.0469C128.973 94.2125 126.706 98.3801 127.966 102.356Z" fill="#FFCC4D"/>
<path d="M118.195 122.768C119.139 125.749 122.371 127.458 125.413 126.584C128.455 125.71 130.155 122.584 129.21 119.602C128.266 116.621 125.034 114.912 121.992 115.786C118.95 116.661 117.25 119.786 118.195 122.768Z" fill="#FFCC4D"/>
<path d="M100.062 116.356C101.006 119.337 104.238 121.046 107.28 120.172C110.322 119.297 112.022 116.172 111.077 113.19C110.133 110.209 106.901 108.5 103.859 109.374C100.817 110.248 99.1172 113.374 100.062 116.356Z" fill="#FFCC4D"/>
<path d="M67.7121 67.802C68.6566 70.7836 71.8883 72.492 74.9302 71.6179C77.9721 70.7437 79.6724 67.618 78.7278 64.6364C77.7833 61.6549 74.5516 59.9464 71.5097 60.8206C68.4678 61.6947 66.7676 64.8205 67.7121 67.802Z" fill="#FFCC4D"/>
</svg>
