<svg width="41" height="49" viewBox="0 0 41 49" fill="none" xmlns="http://www.w3.org/2000/svg">
<path d="M39.3646 1.1634C39.644 1.39075 39.8942 1.66308 40.1065 1.97318C41.2646 3.69551 40.7546 6.01202 38.9649 7.14968C26.203 15.2663 8.13405 30.0882 7.92094 37.6143C7.89066 38.4625 8.0796 39.4745 9.60706 40.5362C12.5452 42.5744 17.2299 36.6819 17.2769 36.6221C18.5306 34.9403 20.9477 34.5535 22.6675 35.7521C24.3962 36.9923 24.7694 39.2871 23.5128 40.9666C20.369 45.1707 12.469 51.7665 5.06431 46.6178C1.75914 44.3202 0.0975689 41.1681 0.201921 37.4768C0.605665 23.3334 29.066 4.54176 34.768 0.914064C36.2325 -0.0174883 38.1002 0.13431 39.3646 1.1634Z" fill="#77B255"/>
</svg>
