<svg width="78" height="46" viewBox="0 0 78 46" fill="none" xmlns="http://www.w3.org/2000/svg">
<path d="M1.43493 19.5675C0.588106 18.3539 0.225916 16.8307 0.542834 15.2783C1.53907 10.3778 3.69007 6.36646 6.76014 3.68955C10.0104 0.855481 14.14 -0.331678 18.1021 0.419349C25.0576 1.73692 30.8915 9.09279 28.556 20.6047C27.651 25.0822 28.9725 27.2255 29.6849 27.354C30.3905 27.4935 32.4531 25.9954 33.364 21.5185C34.3602 16.618 36.5112 12.6067 39.5818 9.92407C42.8321 7.09 46.9621 5.89714 50.9237 6.65387C57.8783 7.98284 63.7126 15.333 61.3723 26.8331C60.7124 30.0966 61.2578 31.8935 61.6455 32.6667C61.9641 33.2847 62.2966 33.548 62.5007 33.5881C63.2073 33.7162 65.2678 32.2409 66.1797 27.7525C66.8131 24.6533 69.9139 22.6278 73.1222 23.2468C76.3258 23.8539 78.4137 26.848 77.7794 29.9586C75.4508 41.4596 67.1811 46.1413 60.2202 44.8175C53.2538 43.4876 47.4313 36.1384 49.7608 24.626C50.4266 21.363 49.8738 19.5826 49.4866 18.8037C49.1739 18.1862 48.836 17.9167 48.6378 17.8771C47.9259 17.7428 45.8702 19.23 44.9583 23.7184C42.6238 35.2189 34.36 39.9011 27.399 38.5773C20.444 37.254 14.6096 29.9039 16.9505 18.3981C17.6104 15.1346 17.0586 13.3429 16.6772 12.5645C16.3533 11.9402 16.0203 11.6827 15.8221 11.6431C15.116 11.5093 13.0544 12.996 12.143 17.4787C11.5102 20.5722 8.40298 22.6029 5.20049 21.9844C3.60091 21.6896 2.27586 20.7805 1.43493 19.5675Z" fill="#E1ADD6"/>
</svg>
