<svg width="78" height="46" viewBox="0 0 78 46" fill="none" xmlns="http://www.w3.org/2000/svg">
<path d="M1.11266 19.5684C0.265841 18.3549 -0.0963465 16.8317 0.220568 15.2792C1.21681 10.3788 3.36781 6.36743 6.43788 3.69053C9.68816 0.856457 13.8177 -0.330702 17.7798 0.420326C24.7354 1.7379 30.5692 9.09377 28.2337 20.6057C27.3288 25.0832 28.6502 27.2264 29.3627 27.355C30.0682 27.4945 32.1308 25.9964 33.0417 21.5195C34.0379 16.619 36.1889 12.6077 39.2595 9.92505C42.5098 7.09098 46.6399 5.89812 50.6014 6.65485C57.556 7.98382 63.3903 15.334 61.05 26.834C60.3901 30.0975 60.9355 31.8945 61.3233 32.6676C61.6418 33.2857 61.9743 33.549 62.1784 33.5891C62.885 33.7171 64.9456 32.2418 65.8575 27.7535C66.4908 24.6543 69.5916 22.6288 72.8 23.2478C76.0035 23.8549 78.0915 26.849 77.4571 29.9596C75.1286 41.4606 66.8589 46.1423 59.8979 44.8185C52.9316 43.4885 47.109 36.1394 49.4386 24.6269C50.1044 21.3639 49.5515 19.5836 49.1643 18.8047C48.8516 18.1871 48.5138 17.9177 48.3155 17.8781C47.6036 17.7438 45.5479 19.231 44.636 23.7194C42.3016 35.2199 34.0377 39.902 27.0768 38.5783C20.1217 37.255 14.2874 29.9048 16.6282 18.3991C17.2881 15.1356 16.7363 13.3439 16.3549 12.5655C16.031 11.9412 15.698 11.6836 15.4998 11.6441C14.7937 11.5103 12.7321 12.997 11.8207 17.4796C11.1879 20.5732 8.08072 22.6039 4.87822 21.9854C3.27864 21.6906 1.95359 20.7815 1.11266 19.5684Z" fill="#77B255"/>
</svg>
