<svg width="47" height="39" viewBox="0 0 47 39" fill="none" xmlns="http://www.w3.org/2000/svg">
<g clip-path="url(#clip0_2497_10589)">
<path d="M25.8021 38.1636C25.1732 38.6766 24.3204 38.9648 23.4313 38.9648C22.5421 38.9648 21.6893 38.6766 21.0605 38.1636L0.940584 21.7434C0.329684 21.2273 -0.00831637 20.536 -0.000616307 19.8185C0.00698376 19.1009 0.359682 18.4145 0.981382 17.9071C1.60308 17.3997 2.44418 17.1119 3.32338 17.1056C4.20258 17.0994 5.04968 17.3753 5.68218 17.8738L23.4313 32.3591L41.1804 17.8738C41.8128 17.3753 42.6599 17.0994 43.5391 17.1056C44.4183 17.1119 45.2594 17.3997 45.8811 17.9071C46.5029 18.4145 46.8555 19.1009 46.8632 19.8185C46.8708 20.536 46.5328 21.2273 45.922 21.7434L25.8021 38.1636ZM23.4313 15.9389L41.1804 1.45359C41.8128 0.95509 42.6599 0.679289 43.5391 0.685489C44.4183 0.691689 45.2594 0.979592 45.8811 1.48699C46.5029 1.99439 46.8555 2.68079 46.8632 3.39829C46.8708 4.11589 46.5328 4.80719 45.922 5.32329L25.8021 21.7434C25.1732 22.2565 24.3204 22.5447 23.4313 22.5447C22.5421 22.5447 21.6893 22.2565 21.0605 21.7434L0.940585 5.32329C0.329685 4.80719 -0.00831493 4.11588 -0.000614872 3.39828C0.00698519 2.68078 0.359684 1.99439 0.981384 1.48699C1.60308 0.979588 2.44418 0.691686 3.32338 0.685486C4.20258 0.679286 5.04969 0.955087 5.68219 1.45359L23.4313 15.9389Z" fill="#FDFDFD"/>
</g>
<defs>
<clipPath id="clip0_2497_10589">
<rect width="47" height="39" fill="white"/>
</clipPath>
</defs>
</svg>
