<svg width="220" height="84" viewBox="0 0 220 84" fill="none" xmlns="http://www.w3.org/2000/svg">
<g clip-path="url(#clip0_1363_15090)">
<path d="M54.5404 43.2158C53.7075 43.3305 52.9787 43.5158 52.354 43.7632C51.7292 44.0106 51.226 44.3373 50.8529 44.7437C50.4713 45.1498 50.2891 45.6622 50.2891 46.2716C50.2891 47.1548 50.5666 47.7289 51.1132 47.9759C51.6598 48.2233 52.2586 48.347 52.9006 48.347C54.1501 48.347 55.2173 47.9406 56.1021 47.1371C56.9872 46.3246 57.5513 45.2911 57.7767 44.0193L57.9504 43.0391H57.2129C56.2671 43.0391 55.3821 43.1008 54.5492 43.2158H54.5404Z" fill="#FDFDFD"/>
<path d="M172.037 68.447L174.188 58.2285C174.639 58.4229 175.117 58.5819 175.603 58.7232C176.097 58.8556 176.626 58.9263 177.191 58.9263C178.587 58.9263 179.68 58.6259 180.453 58.0342C181.225 57.4337 181.858 56.6742 182.353 55.7557L182.691 55.1196L175.542 25.1444H189.615L191.429 41.7746H191.654L198.63 25.1444H212.243L194.942 57.372C193.919 59.2973 192.912 61.0017 191.906 62.4856C190.899 63.9692 189.78 65.2147 188.53 66.2392C188.183 66.5216 187.828 66.778 187.455 67.025L219.983 63.9869L214.23 0L42.5494 16.0564L38.2024 40.7945C37.8987 42.6051 37.4561 44.4421 36.8664 46.3054C36.2763 48.1778 35.4087 49.8737 34.2546 51.4193C33.1007 52.9559 31.5474 54.2188 29.6041 55.1993C27.6518 56.1795 25.1704 56.6742 22.1423 56.6742C18.3941 56.6742 15.2966 55.7734 12.8411 53.9628C10.3857 52.1521 8.68512 49.6087 7.7394 46.3408L19.7649 42.0133C19.8777 42.6668 20.1467 43.2496 20.5632 43.7443C20.9797 44.2477 21.561 44.4951 22.3245 44.4951C23.1921 44.4951 23.8168 44.1684 24.1986 43.5146C24.5804 42.8611 24.858 42.031 25.0489 41.0328L29.1788 17.3193L0 20.0307L5.76984 84L172.045 68.447H172.028H172.037ZM67.4506 53.433C67.3987 54.3161 67.364 55.0136 67.364 55.5084H56.4751C56.4751 55.2433 56.4836 54.8106 56.5011 54.2101C56.5183 53.6184 56.5445 53.1236 56.5877 52.7352H56.4751C55.3819 54.0071 54.1324 54.9166 52.7267 55.482C51.33 56.0381 49.7767 56.3208 48.0762 56.3208C47.0177 56.3208 45.9591 56.1708 44.9006 55.8617C43.8421 55.5524 42.8876 55.0843 42.0375 54.4485C41.1871 53.8127 40.493 52.9826 39.9638 51.9667C39.4344 50.9512 39.1654 49.7234 39.1654 48.3014C39.1654 45.9523 39.686 44.018 40.7274 42.4991C41.7684 40.9798 43.1654 39.7789 44.9265 38.8868C46.688 38.0036 48.7182 37.3765 51.0262 37.0145C53.3342 36.6524 55.7548 36.4667 58.2884 36.4667C58.3231 36.3167 58.3491 36.1843 58.3491 36.096V35.8399C58.3491 35.0714 58.0194 34.4797 57.3599 34.0733C56.7005 33.6672 55.8329 33.4639 54.7744 33.4639C53.5598 33.4639 52.3885 33.7025 51.2606 34.1883C50.1239 34.674 49.0826 35.3188 48.1368 36.1223L42.5754 29.6575C43.4864 28.7743 44.5102 27.9971 45.6641 27.317C46.818 26.6458 47.9981 26.0717 49.2129 25.6124C50.4189 25.1532 51.6509 24.7999 52.9004 24.5703C54.1496 24.3407 55.3385 24.2258 56.4751 24.2258C61.0128 24.2258 64.4225 25.162 66.7133 27.0256C69.0039 28.8891 70.149 31.5209 70.149 34.9034C70.149 36.3257 70.0015 37.924 69.698 39.6993L67.7719 50.8452C67.6243 51.693 67.52 52.5585 67.4593 53.4417L67.4506 53.433ZM105.835 55.5084L108.612 39.3989C108.69 39.0898 108.733 38.7544 108.751 38.3921C108.768 38.03 108.777 37.7299 108.777 37.5002C108.777 35.7339 108.004 34.8418 106.451 34.8418C105.618 34.8418 104.907 35.2568 104.326 36.087C103.736 36.9171 103.311 38.039 103.05 39.4696L100.274 55.526H87.5628L90.3391 39.5316C90.4172 39.2225 90.4606 38.9045 90.4781 38.5777C90.4953 38.251 90.5041 37.9946 90.5041 37.8006C90.5041 36.9171 90.3044 36.202 89.9053 35.6632C89.5062 35.1245 88.9336 34.8507 88.1788 34.8507C87.4238 34.8507 86.7993 35.2215 86.1918 35.9456C85.5845 36.6787 85.1332 37.8533 84.8298 39.4696L82.0532 55.526H69.342L73.5415 31.0971C73.689 30.364 73.854 29.4191 74.0275 28.2708C74.2009 27.1139 74.3225 26.0805 74.4006 25.1532H86.6518C86.6171 25.7273 86.5562 26.3985 86.4781 27.1492C86.3999 27.8999 86.3305 28.5446 86.2527 29.0834H86.4781C87.311 27.9264 88.4651 26.8666 89.94 25.9039C91.4151 24.9412 93.1765 24.4643 95.2154 24.4643C97.4104 24.4643 99.1546 24.8706 100.465 25.6743C101.775 26.478 102.746 27.5819 103.388 28.9687C104.369 27.7409 105.575 26.6811 106.989 25.7891C108.404 24.9059 110.191 24.4643 112.351 24.4643C114.087 24.4643 115.579 24.7558 116.802 25.3298C118.035 25.9039 119.032 26.6546 119.813 27.5819C120.585 28.5093 121.158 29.5425 121.514 30.6997C121.869 31.8566 122.051 33.0134 122.051 34.1616C122.051 34.7004 122.026 35.2128 121.965 35.6896C121.904 36.1753 121.843 36.6434 121.765 37.1028L118.59 55.526H105.826L105.835 55.5084ZM158.085 55.5084L160.861 39.3989C160.939 39.0898 160.983 38.7544 161 38.3921C161.017 38.03 161.026 37.7299 161.026 37.5002C161.026 35.7339 160.254 34.8418 158.701 34.8418C157.868 34.8418 157.156 35.2568 156.575 36.087C155.985 36.9171 155.56 38.039 155.3 39.4696L152.523 55.526H139.812L142.589 39.5316C142.667 39.2225 142.71 38.9045 142.728 38.5777C142.745 38.251 142.753 37.9946 142.753 37.8006C142.753 36.9171 142.554 36.202 142.155 35.6632C141.756 35.1245 141.183 34.8507 140.428 34.8507C139.673 34.8507 139.049 35.2215 138.441 35.9456C137.834 36.6787 137.383 37.8533 137.079 39.4696L134.303 55.526H121.592L125.791 31.0971C125.939 30.364 126.103 29.4191 126.277 28.2708C126.451 27.1139 126.572 26.0805 126.65 25.1532H138.901C138.867 25.7273 138.806 26.3985 138.728 27.1492C138.65 27.8999 138.58 28.5446 138.502 29.0834H138.728C139.561 27.9264 140.715 26.8666 142.19 25.9039C143.665 24.9412 145.426 24.4643 147.465 24.4643C149.66 24.4643 151.404 24.8706 152.714 25.6743C154.024 26.478 154.996 27.5819 155.638 28.9687C156.619 27.7409 157.825 26.6811 159.239 25.7891C160.653 24.9059 162.44 24.4643 164.601 24.4643C166.336 24.4643 167.828 24.7558 169.052 25.3298C170.284 25.9039 171.282 26.6546 172.063 27.5819C172.835 28.5093 173.407 29.5425 173.763 30.6997C174.119 31.8566 174.301 33.0134 174.301 34.1616C174.301 34.7004 174.275 35.2128 174.214 35.6896C174.154 36.1753 174.093 36.6434 174.015 37.1028L170.839 55.526H158.076L158.085 55.5084Z" fill="#FDFDFD"/>
</g>
<defs>
<clipPath id="clip0_1363_15090">
<rect width="220" height="84" fill="white"/>
</clipPath>
</defs>
</svg>
