<svg width="295" height="111" viewBox="0 0 295 111" fill="none" xmlns="http://www.w3.org/2000/svg">
<g clip-path="url(#clip0_1363_15285)">
<path d="M73.1343 57.1046C72.0174 57.2561 71.0402 57.5011 70.2024 57.828C69.3647 58.1549 68.69 58.5866 68.1896 59.1236C67.6779 59.6603 67.4336 60.3374 67.4336 61.1427C67.4336 62.3097 67.8057 63.0683 68.5387 63.3948C69.2717 63.7217 70.0746 63.8851 70.9354 63.8851C72.6108 63.8851 74.042 63.3481 75.2284 62.2864C76.4152 61.2127 77.1716 59.847 77.4738 58.1663L77.7068 56.8711H76.7178C75.4497 56.8711 74.2628 56.9526 73.146 57.1046H73.1343Z" fill="#FDFDFD"/>
<path d="M230.685 90.4478L233.571 76.9448C234.176 77.2016 234.815 77.4118 235.467 77.5986C236.13 77.7735 236.84 77.8669 237.596 77.8669C239.469 77.8669 240.935 77.47 241.971 76.688C243.006 75.8945 243.855 74.8909 244.519 73.6772L244.973 72.8367L235.386 33.2265H254.257L256.688 55.2022H256.991L266.345 33.2265H284.599L261.4 75.813C260.027 78.3572 258.678 80.6093 257.328 82.5702C255.978 84.5307 254.478 86.1766 252.802 87.5304C252.337 87.9036 251.86 88.2423 251.36 88.5688L294.977 84.5541L287.263 0L57.0549 21.2173L51.226 53.907C50.8187 56.2996 50.2253 58.727 49.4344 61.1893C48.6432 63.6635 47.4799 65.9045 45.9323 67.9469C44.385 69.9775 42.3022 71.6463 39.6964 72.9419C37.0786 74.2372 33.7512 74.8909 29.6908 74.8909C24.6648 74.8909 20.5113 73.7006 17.2188 71.3079C13.9263 68.9153 11.646 65.5543 10.3778 61.236L26.503 55.5176C26.6542 56.3811 27.0149 57.1512 27.5733 57.805C28.1318 58.4702 28.9113 58.7971 29.9351 58.7971C31.0986 58.7971 31.9362 58.3653 32.4481 57.5014C32.96 56.6379 33.3324 55.541 33.5883 54.222L39.1261 22.8862L0 26.4691L7.73683 111L230.697 90.4478H230.674H230.685ZM90.4451 70.6079C90.3755 71.7749 90.329 72.6966 90.329 73.3503H75.728C75.728 73.0001 75.7394 72.4283 75.7628 71.6348C75.7859 70.8528 75.8211 70.1991 75.8789 69.6858H75.728C74.2621 71.3665 72.5866 72.5684 70.7017 73.3155C68.8288 74.0504 66.746 74.424 64.4658 74.424C63.0464 74.424 61.627 74.2257 60.2076 73.8173C58.7882 73.4085 57.5084 72.79 56.3685 71.9498C55.2282 71.1097 54.2974 70.0127 53.5879 68.6703C52.878 67.3284 52.5172 65.7059 52.5172 63.8269C52.5172 60.7227 53.2154 58.1667 54.6117 56.1595C56.0076 54.1519 57.8809 52.565 60.2424 51.3861C62.6043 50.2191 65.3266 49.3904 68.4215 48.912C71.5163 48.4335 74.7621 48.1882 78.1595 48.1882C78.206 47.9899 78.2408 47.815 78.2408 47.6982V47.3599C78.2408 46.3444 77.7987 45.5624 76.9145 45.0254C76.0302 44.4888 74.8668 44.2201 73.4474 44.2201C71.8189 44.2201 70.2482 44.5355 68.7358 45.1774C67.2116 45.8193 65.8153 46.6713 64.5471 47.7331L57.0897 39.1903C58.3113 38.0231 59.6842 36.9961 61.2314 36.0975C62.7787 35.2105 64.3611 34.4519 65.99 33.845C67.6072 33.2381 69.2592 32.7713 70.9346 32.4679C72.6097 32.1644 74.2039 32.0127 75.728 32.0127C81.8126 32.0127 86.3847 33.2498 89.4565 35.7123C92.5279 38.1749 94.0634 41.6526 94.0634 46.1224C94.0634 48.0018 93.8656 50.1138 93.4587 52.4597L90.8759 67.1883C90.6781 68.3086 90.5382 69.4523 90.4568 70.6193L90.4451 70.6079ZM141.915 73.3503L145.638 52.0628C145.743 51.6544 145.801 51.2112 145.825 50.7324C145.848 50.2539 145.86 49.8574 145.86 49.5538C145.86 47.2198 144.824 46.0409 142.741 46.0409C141.625 46.0409 140.671 46.5894 139.891 47.6864C139.1 48.7834 138.53 50.2658 138.181 52.1562L134.458 73.3737H117.414L121.136 52.2381C121.241 51.8297 121.299 51.4095 121.323 50.9777C121.346 50.546 121.358 50.2072 121.358 49.9508C121.358 48.7834 121.09 47.8383 120.555 47.1264C120.02 46.4145 119.252 46.0528 118.24 46.0528C117.227 46.0528 116.39 46.5427 115.575 47.4996C114.761 48.4683 114.156 50.0204 113.749 52.1562L110.026 73.3737H92.9814L98.6124 41.0926C98.8103 40.1238 99.0315 38.8753 99.2641 37.3579C99.4967 35.829 99.6597 34.4635 99.7645 33.2381H116.192C116.146 33.9967 116.064 34.8837 115.959 35.8757C115.854 36.8677 115.761 37.7197 115.657 38.4316H115.959C117.076 36.9028 118.624 35.5022 120.601 34.2301C122.579 32.958 124.941 32.3278 127.675 32.3278C130.618 32.3278 132.957 32.8647 134.714 33.9267C136.471 34.9887 137.774 36.4476 138.635 38.2801C139.949 36.6577 141.566 35.2572 143.463 34.0784C145.359 32.9113 147.756 32.3278 150.653 32.3278C152.98 32.3278 154.981 32.713 156.621 33.4715C158.274 34.2301 159.611 35.2222 160.659 36.4476C161.694 37.673 162.462 39.0383 162.939 40.5674C163.416 42.0962 163.66 43.6249 163.66 45.1422C163.66 45.8541 163.625 46.5312 163.544 47.1612C163.462 47.8031 163.381 48.4216 163.276 49.0287L159.018 73.3737H141.904L141.915 73.3503ZM211.978 73.3503L215.7 52.0628C215.805 51.6544 215.863 51.2112 215.887 50.7324C215.91 50.2539 215.921 49.8574 215.921 49.5538C215.921 47.2198 214.886 46.0409 212.804 46.0409C211.687 46.0409 210.733 46.5894 209.953 47.6864C209.162 48.7834 208.592 50.2658 208.243 52.1562L204.52 73.3737H187.476L191.199 52.2381C191.303 51.8297 191.362 51.4095 191.385 50.9777C191.408 50.546 191.419 50.2072 191.419 49.9508C191.419 48.7834 191.152 47.8383 190.617 47.1264C190.082 46.4145 189.314 46.0528 188.302 46.0528C187.289 46.0528 186.452 46.5427 185.637 47.4996C184.823 48.4683 184.218 50.0204 183.811 52.1562L180.088 73.3737H163.043L168.675 41.0926C168.872 40.1238 169.093 38.8753 169.326 37.3579C169.559 35.829 169.721 34.4635 169.826 33.2381H186.254C186.207 33.9967 186.126 34.8837 186.021 35.8757C185.917 36.8677 185.824 37.7197 185.719 38.4316H186.021C187.138 36.9028 188.685 35.5022 190.663 34.2301C192.641 32.958 195.003 32.3278 197.737 32.3278C200.681 32.3278 203.019 32.8647 204.776 33.9267C206.533 34.9887 207.835 36.4476 208.697 38.2801C210.011 36.6577 211.628 35.2572 213.525 34.0784C215.421 32.9113 217.818 32.3278 220.715 32.3278C223.042 32.3278 225.043 32.713 226.683 33.4715C228.335 34.2301 229.673 35.2222 230.72 36.4476C231.756 37.673 232.524 39.0383 233.001 40.5674C233.478 42.0962 233.722 43.6249 233.722 45.1422C233.722 45.8541 233.687 46.5312 233.606 47.1612C233.524 47.8031 233.443 48.4216 233.338 49.0287L229.08 73.3737H211.966L211.978 73.3503Z" fill="#FDFDFD"/>
</g>
<defs>
<clipPath id="clip0_1363_15285">
<rect width="295" height="111" fill="white"/>
</clipPath>
</defs>
</svg>
