<svg width="44" height="44" viewBox="0 0 44 44" fill="none" xmlns="http://www.w3.org/2000/svg">
<g clip-path="url(#clip0_2370_20677)">
<mask id="mask0_2370_20677" style="mask-type:luminance" maskUnits="userSpaceOnUse" x="0" y="0" width="44" height="44">
<path d="M44 0H0V44H44V0Z" fill="white"/>
</mask>
<g mask="url(#mask0_2370_20677)">
<path d="M11.0065 17.9041L10.9354 19.9669L9.5421 22.0102L8.66816 18.7529L11.7103 14.2323L11.8619 15.415L11.0228 17.7792C11.0332 17.8263 11.0198 17.8652 11.0065 17.9041Z" fill="#1CAD33"/>
<path d="M34.8835 18.0179L33.4 20.2295L31.4858 24.1238L30.2415 21.6719L28.4229 22.9218L27.1787 20.7103L26.1258 22.0564L24.068 21.6237L24.2116 23.0181L25.5037 23.5469L23.0379 29.3946C22.8708 29.7908 22.3079 29.7869 22.1463 29.3882L21.4359 27.6334L20.8617 24.1719L19.1866 24.0757L18.4688 22.7777L19.4259 20.1334L20.8617 19.7968L22.1059 20.2295L22.3451 19.6045L21.4359 18.691L19.5216 18.3545L19.4259 17.7775L21.2923 16.7199L20.4787 15.4699L22.3451 13.7871L24.3551 14.5083L27.6572 13.4506C27.6572 13.4506 28.9973 12.7295 30.5286 11.9121" fill="#1CAD33"/>
<path d="M34.8835 18.0179L33.4 20.2295L31.4858 24.1238L30.2415 21.6719L28.4229 22.9218L27.1787 20.7103L26.1258 22.0564L24.068 21.6237L24.2116 23.0181L25.5037 23.5469L23.0379 29.3946C22.8708 29.7908 22.3079 29.7869 22.1463 29.3882L21.4359 27.6334L20.8617 24.1719L19.1866 24.0757L18.4688 22.7777L19.4259 20.1334L20.8617 19.7968L22.1059 20.2295L22.3451 19.6045L21.4359 18.691L19.5216 18.3545L19.4259 17.7775L21.2923 16.7199L20.4787 15.4699L22.3451 13.7871L24.3551 14.5083L27.6572 13.4506C27.6572 13.4506 28.9973 12.7295 30.5286 11.9121" stroke="black" stroke-width="1.43775" stroke-linejoin="round"/>
<path d="M13.274 11.5781L12.6996 13.2608L11.5511 16.0493C11.5033 16.0974 12.3168 17.3474 12.3168 17.3474C12.3647 17.3954 13.4175 16.0493 13.4175 16.0493L14.9968 17.9724L11.9819 20.6648L10.259 20.809C10.1633 20.809 10.3069 21.434 10.3547 21.4821L10.929 23.6455H8.10547" fill="#1CAD33"/>
<path d="M13.274 11.5781L12.6996 13.2608L11.5511 16.0493C11.5033 16.0974 12.3168 17.3474 12.3168 17.3474C12.3647 17.3954 13.4175 16.0493 13.4175 16.0493L14.9968 17.9724L11.9819 20.6648L10.259 20.809C10.1633 20.809 10.3069 21.434 10.3547 21.4821L10.929 23.6455H8.10547" stroke="black" stroke-width="1.43775" stroke-linejoin="round"/>
<path d="M14.2774 29.0826L13.1289 26.7749L14.3732 23.9863L17.9624 27.2556L15.2824 33.4095L14.2774 32.1596L14.3252 29.2268C14.2774 29.1787 14.2774 29.1306 14.2774 29.0826Z" fill="#1CAD33" stroke="black" stroke-width="1.43775" stroke-linejoin="round"/>
<path d="M31.0303 12.6705L31.0303 12.6705L31.0267 12.6669C28.59 10.2188 25.3048 8.81762 21.8189 8.81762C14.651 8.81762 8.78236 14.6661 8.73262 21.8624H8.73261V21.8658C8.73261 29.0605 14.551 34.9621 21.7232 34.9621H21.771C28.9382 34.9621 34.8094 29.1135 34.8094 21.9139C34.8094 18.4161 33.465 15.1663 31.0303 12.6705ZM7.91406 21.8658C7.91406 14.159 14.153 7.89453 21.8189 7.89453C29.48 7.89453 35.7244 14.2026 35.8194 21.9153C35.7708 29.6231 29.5305 35.8852 21.8667 35.8852H21.8664H21.8661H21.8658H21.8656H21.8653H21.865H21.8647H21.8645H21.8642H21.8639H21.8637H21.8634H21.8631H21.8629H21.8626H21.8623H21.8621H21.8618H21.8615H21.8613H21.861H21.8608H21.8605H21.8603H21.86H21.8598H21.8595H21.8592H21.859H21.8588H21.8585H21.8583H21.858H21.8578H21.8575H21.8573H21.857H21.8568H21.8566H21.8563H21.8561H21.8558H21.8556H21.8554H21.8551H21.8549H21.8547H21.8544H21.8542H21.854H21.8538H21.8535H21.8533H21.8531H21.8529H21.8526H21.8524H21.8522H21.852H21.8518H21.8515H21.8513H21.8511H21.8509H21.8507H21.8505H21.8502H21.85H21.8498H21.8496H21.8494H21.8492H21.849H21.8488H21.8486H21.8484H21.8482H21.848H21.8478H21.8476H21.8474H21.8472H21.847H21.8468H21.8466H21.8464H21.8462H21.846H21.8458H21.8456H21.8454H21.8452H21.8451H21.8449H21.8447H21.8445H21.8443H21.8441H21.844H21.8438H21.8436H21.8434H21.8432H21.8431H21.8429H21.8427H21.8425H21.8423H21.8422H21.842H21.8418H21.8417H21.8415H21.8413H21.8411H21.841H21.8408H21.8406H21.8405H21.8403H21.8401H21.84H21.8398H21.8397H21.8395H21.8393H21.8392H21.839H21.8389H21.8387H21.8386H21.8384H21.8382H21.8381H21.8379H21.8378H21.8376H21.8375H21.8373H21.8372H21.837H21.8369H21.8368H21.8366H21.8365H21.8363H21.8362H21.836H21.8359H21.8358H21.8356H21.8355H21.8353H21.8352H21.8351H21.8349H21.8348H21.8347H21.8345H21.8344H21.8343H21.8341H21.834H21.8339H21.8337H21.8336H21.8335H21.8334H21.8332H21.8331H21.833H21.8329H21.8327H21.8326H21.8325H21.8324H21.8322H21.8321H21.832H21.8319H21.8318H21.8317H21.8315H21.8314H21.8313H21.8312H21.8311H21.831H21.8309H21.8307H21.8306H21.8305H21.8304H21.8303H21.8302H21.8301H21.83H21.8299H21.8298H21.8297H21.8296H21.8295H21.8294H21.8293H21.8292H21.8291H21.829H21.8289H21.8288H21.8287H21.8286H21.8285H21.8284H21.8283H21.8282H21.8281H21.828H21.8279H21.8278H21.8277H21.8276H21.8275H21.8275H21.8274H21.8273H21.8272H21.8271H21.827H21.8269H21.8268H21.8268H21.8267H21.8266H21.8265H21.8264H21.8263H21.8263H21.8262H21.8261H21.826H21.8259H21.8259H21.8258H21.8257H21.8256H21.8256H21.8255H21.8254H21.8253H21.8253H21.8252H21.8251H21.825H21.825H21.8249H21.8248H21.8248H21.8247H21.8246H21.8246H21.8245H21.8244H21.8244H21.8243H21.8242H21.8242H21.8241H21.824H21.824H21.8239H21.8238H21.8238H21.8237H21.8237H21.8236H21.8235H21.8235H21.8234H21.8234H21.8233H21.8232H21.8232H21.8231H21.8231H21.823H21.823H21.8229H21.8229H21.8228H21.8228H21.8227H21.8226H21.8226H21.8225H21.8225H21.8224H21.8224H21.8223H21.8223H21.8222H21.8222H21.8222H21.8221H21.8221H21.822H21.822H21.8219H21.8219H21.8218H21.8218H21.8217H21.8217H21.8217H21.8216H21.8216H21.8215H21.8215H21.8215H21.8214H21.8214H21.8213H21.8213H21.8213H21.8212H21.8212H21.8211H21.8211H21.8211H21.821H21.821H21.821H21.8209H21.8209H21.8209H21.8208H21.8208H21.8208H21.8207H21.8207H21.8207H21.8206H21.8206H21.8206H21.8205H21.8205H21.8205H21.8205H21.8204H21.8204H21.8204H21.8203H21.8203H21.8203H21.8203H21.8202H21.8202H21.8202H21.8202H21.8201H21.8201H21.8201H21.8201H21.82H21.82H21.82H21.82H21.8199H21.8199H21.8199H21.8199H21.8199H21.8198H21.8198H21.8198H21.8198H21.8197H21.8197H21.8197H21.8197H21.8197H21.8197H21.8196H21.8196H21.8196H21.8196H21.8196H21.8195H21.8195H21.8195H21.8195H21.8195H21.8195H21.8195H21.8194H21.8194H21.8194H21.8194H21.8194H21.8194H21.8193H21.8193H21.8193H21.8193H21.8192H21.8192H21.8192H21.8192H21.8191H21.8191H21.8191H21.8191H21.8191H21.8191H21.819H21.819H21.819H21.819H21.819H21.819H21.8189H21.8189H21.8189H21.8189H21.8189H21.8189H21.8189C14.1551 35.8852 7.91406 29.5749 7.91406 21.8658Z" stroke="black"/>
</g>
</g>
<defs>
<clipPath id="clip0_2370_20677">
<rect width="44" height="44" fill="white"/>
</clipPath>
</defs>
</svg>
