<svg width="44" height="44" viewBox="0 0 44 44" fill="none" xmlns="http://www.w3.org/2000/svg">
<path d="M8.50781 27.9961V36.8328C8.51264 37.2769 8.69247 37.7012 9.00826 38.0136C9.32405 38.3259 9.75031 38.5011 10.1945 38.5011H20.4978V27.9961H8.50781Z" fill="#231F20"/>
<path d="M23.5039 38.5011H33.8072C34.2514 38.5011 34.6777 38.3259 34.9935 38.0136C35.3092 37.7012 35.4891 37.2769 35.4939 36.8328V27.9961H23.5039V38.5011Z" fill="#231F20"/>
<path d="M36.85 13.0022H33.4767C33.8222 12.3005 34.004 11.5294 34.0083 10.7472C34.0035 9.35494 33.447 8.02132 32.4608 7.03853C31.4745 6.05573 30.139 5.5039 28.7467 5.50391C27.2922 5.57288 25.8869 6.0519 24.693 6.88563C23.4992 7.71935 22.5656 8.87378 22 10.2156C21.4344 8.87378 20.5008 7.71935 19.307 6.88563C18.1131 6.0519 16.7078 5.57288 15.2533 5.50391C13.861 5.5039 12.5255 6.05573 11.5392 7.03853C10.553 8.02132 9.99652 9.35494 9.99167 10.7472C9.99602 11.5294 10.1778 12.3005 10.5233 13.0022H7.15C6.23333 13.0022 5.5 14.0839 5.5 15.4039V22.6089C5.5 23.9289 6.23333 25.0106 7.15 25.0106H20.4967V13.0022H23.5033V25.0106H36.85C37.7667 25.0106 38.5 23.9289 38.5 22.6089V15.4039C38.5 14.0839 37.7667 13.0022 36.85 13.0022ZM15.2533 13.0022C14.9414 13.0305 14.6269 12.9934 14.3301 12.8933C14.0332 12.7933 13.7605 12.6325 13.5292 12.4212C13.2979 12.2099 13.1132 11.9527 12.9869 11.6661C12.8605 11.3795 12.7952 11.0697 12.7952 10.7564C12.7952 10.4432 12.8605 10.1333 12.9869 9.8467C13.1132 9.56007 13.2979 9.30291 13.5292 9.09161C13.7605 8.88032 14.0332 8.71953 14.3301 8.61949C14.6269 8.51945 14.9414 8.48236 15.2533 8.51057C17.82 8.51057 19.2683 11.1506 19.9833 13.0022H15.2533ZM28.7467 13.0022H24.0167C24.7317 11.1689 26.18 8.51057 28.7467 8.51057C29.0586 8.48236 29.3731 8.51945 29.6699 8.61949C29.9668 8.71953 30.2395 8.88032 30.4708 9.09161C30.7021 9.30291 30.8868 9.56007 31.0131 9.8467C31.1395 10.1333 31.2048 10.4432 31.2048 10.7564C31.2048 11.0697 31.1395 11.3795 31.0131 11.6661C30.8868 11.9527 30.7021 12.2099 30.4708 12.4212C30.2395 12.6325 29.9668 12.7933 29.6699 12.8933C29.3731 12.9934 29.0586 13.0305 28.7467 13.0022Z" fill="#231F20"/>
</svg>
