<svg width="354" height="416" viewBox="0 0 354 416" fill="none" xmlns="http://www.w3.org/2000/svg">
<g filter="url(#filter0_dd_2370_20718)">
<path d="M27.1437 79.6044C45.1214 94.9279 36.4714 110.758 27.0623 119.357C24.6498 121.562 23 124.566 23 127.835V382.6C23 388.123 27.4772 392.6 33 392.6H321C326.523 392.6 331 388.123 331 382.6V129.328C331 125.27 328.487 121.665 324.864 119.836C296.234 105.387 310.691 88.557 325.569 79.422C328.811 77.4318 331 74.0115 331 70.2079V33C331 27.4772 326.523 23 321 23H33C27.4772 23 23 27.4772 23 33V71.2029C23 74.4712 24.6564 77.4842 27.1437 79.6044Z" fill="white"/>
<path d="M20.6568 87.2149C27.4773 93.0284 27.9549 97.5177 27.4942 100.45C26.8939 104.272 24.1531 108.469 20.3159 111.976C16.3569 115.594 13 121.117 13 127.835V382.6C13 393.646 21.9543 402.6 33 402.6H321C332.046 402.6 341 393.646 341 382.6V129.328C341 121.009 335.905 114.207 329.369 110.908C323.057 107.723 320.299 104.969 319.189 103.262C318.319 101.923 318.33 101.096 318.568 100.197C318.915 98.8869 319.991 96.9329 322.329 94.5268C324.599 92.1905 327.579 89.9225 330.802 87.9439C336.568 84.4032 341 77.9716 341 70.2079V33C341 21.9543 332.046 13 321 13H33C21.9543 13 13 21.9543 13 33V71.2029C13 77.9306 16.3785 83.5682 20.6568 87.2149Z" stroke="black" stroke-width="20" stroke-linejoin="round"/>
</g>
<defs>
<filter id="filter0_dd_2370_20718" x="0" y="0" width="354" height="415.6" filterUnits="userSpaceOnUse" color-interpolation-filters="sRGB">
<feFlood flood-opacity="0" result="BackgroundImageFix"/>
<feColorMatrix in="SourceAlpha" type="matrix" values="0 0 0 0 0 0 0 0 0 0 0 0 0 0 0 0 0 0 127 0" result="hardAlpha"/>
<feOffset dx="-3" dy="-3"/>
<feComposite in2="hardAlpha" operator="out"/>
<feColorMatrix type="matrix" values="0 0 0 0 1 0 0 0 0 1 0 0 0 0 1 0 0 0 1 0"/>
<feBlend mode="normal" in2="BackgroundImageFix" result="effect1_dropShadow_2370_20718"/>
<feColorMatrix in="SourceAlpha" type="matrix" values="0 0 0 0 0 0 0 0 0 0 0 0 0 0 0 0 0 0 127 0" result="hardAlpha"/>
<feOffset dx="3" dy="3"/>
<feComposite in2="hardAlpha" operator="out"/>
<feColorMatrix type="matrix" values="0 0 0 0 1 0 0 0 0 1 0 0 0 0 1 0 0 0 1 0"/>
<feBlend mode="normal" in2="effect1_dropShadow_2370_20718" result="effect2_dropShadow_2370_20718"/>
<feBlend mode="normal" in="SourceGraphic" in2="effect2_dropShadow_2370_20718" result="shape"/>
</filter>
</defs>
</svg>
