<svg width="44" height="45" viewBox="0 0 44 45" fill="none" xmlns="http://www.w3.org/2000/svg">
<path d="M8.3125 29.1445V37.7848C8.31722 38.2191 8.49306 38.634 8.80183 38.9394C9.1106 39.2448 9.52738 39.4161 9.96169 39.4161H20.0361V29.1445H8.3125Z" fill="#231F20"/>
<path d="M22.9805 39.4161H33.0548C33.4891 39.4161 33.9059 39.2448 34.2147 38.9394C34.5235 38.634 34.6993 38.2191 34.704 37.7848V29.1445H22.9805V39.4161Z" fill="#231F20"/>
<path d="M33.2814 7.48336L30.1254 8.44177C30.2493 7.68704 30.2003 6.91403 29.9821 6.18096C29.582 4.87972 28.6825 3.79011 27.4805 3.15082C26.2786 2.51153 24.8723 2.37469 23.5697 2.77027C22.2284 3.24805 21.0497 4.09548 20.1697 5.21469C19.2896 6.3339 18.7441 7.67923 18.5962 9.09529C17.6858 8.00062 16.4843 7.1858 15.1305 6.74496C13.7767 6.30412 12.3258 6.25522 10.9454 6.60393C9.6428 6.9995 8.55005 7.89524 7.90657 9.09494C7.26309 10.2946 7.12134 11.7005 7.51238 13.0045C7.73869 13.735 8.12782 14.4048 8.65048 14.9632L5.49442 15.9216C4.6368 16.182 4.25802 17.4024 4.63305 18.6373L6.6801 25.3783C7.05513 26.6132 8.04855 27.4169 8.90617 27.1564L21.3932 23.3645L17.9814 12.1296L20.7944 11.2753L24.2062 22.5102L36.6932 18.7182C37.5508 18.4578 37.9296 17.2374 37.5546 16.0025L35.5075 9.26154C35.1325 8.02656 34.1391 7.22292 33.2814 7.48336ZM13.0758 13.6193C12.7919 13.7343 12.4872 13.789 12.1811 13.7797C11.8749 13.7705 11.5741 13.6975 11.2977 13.5655C11.0212 13.4336 10.7754 13.2454 10.5757 13.0132C10.376 12.7809 10.227 12.5096 10.138 12.2165C10.049 11.9234 10.022 11.615 10.0588 11.3109C10.0956 11.0069 10.1953 10.7138 10.3517 10.4504C10.508 10.187 10.7175 9.95909 10.9668 9.78115C11.2161 9.60322 11.4998 9.47918 11.7997 9.41694C14.201 8.68771 16.3061 10.7462 17.5012 12.2754L13.0758 13.6193ZM25.7 9.78564L21.2747 11.1295C21.4228 9.21111 22.0225 6.31251 24.4239 5.58328C24.7078 5.46824 25.0125 5.41361 25.3186 5.42287C25.6248 5.43212 25.9257 5.50507 26.2021 5.63704C26.4785 5.76902 26.7243 5.95714 26.924 6.18941C27.1237 6.42167 27.2728 6.69299 27.3618 6.98607C27.4508 7.27915 27.4777 7.58755 27.4409 7.89163C27.4041 8.1957 27.3044 8.48878 27.148 8.75217C26.9917 9.01556 26.7822 9.24348 26.5329 9.42142C26.2836 9.59936 25.9999 9.7234 25.7 9.78564Z" fill="#231F20"/>
<path d="M37.5431 21.6604C37.7206 22.4121 38.0381 23.255 38.9554 23.105C39.402 23.032 39.8514 22.8954 40.145 22.5386C40.3388 22.3032 40.5569 22.0336 40.617 21.7269C40.7536 21.0302 40.5001 20.0514 39.8882 19.6229C39.6089 19.4273 39.314 19.7346 39.1099 19.8926C38.7894 20.1406 39.9338 20.9089 40.1107 20.9954C40.4835 21.1776 40.9625 21.1344 41.3571 21.0674C41.8451 20.9844 42.2445 20.7663 42.5905 20.416C42.9206 20.082 43.302 19.6557 43.3894 19.1777C43.4719 18.7265 43.3568 18.2757 43.0375 17.9427C42.8293 17.7257 42.4937 17.3779 42.192 17.5945" stroke="black" stroke-width="0.5" stroke-linecap="round"/>
<path d="M26.3241 27.25C26.6691 27.0749 27.0433 26.8206 26.8734 26.3881C26.7907 26.1775 26.6769 25.973 26.4731 25.8707C26.3386 25.8031 26.185 25.7277 26.0302 25.7341C25.6785 25.7486 25.2317 25.9875 25.0892 26.3378C25.0242 26.4977 25.2042 26.6064 25.3023 26.6881C25.4563 26.8163 25.7068 26.165 25.7298 26.0681C25.7785 25.8639 25.7067 25.6339 25.6324 25.4482C25.5405 25.2184 25.3926 25.048 25.1863 24.9192C24.9897 24.7964 24.7429 24.6591 24.5022 24.6721C24.2751 24.6844 24.0692 24.7937 23.9419 24.9893C23.8589 25.1168 23.7262 25.3222 23.8631 25.4448" stroke="black" stroke-width="0.5" stroke-linecap="round"/>
<path d="M35.8648 26.43C36.5172 26.5286 37.5315 26.4708 37.7771 27.2456C37.8814 27.5748 37.9452 28.0413 37.8318 28.4257C37.7948 28.5513 37.668 28.8659 37.5169 28.8778C37.436 28.8841 37.2027 28.7619 37.2395 28.6539C37.7271 27.2234 39.8511 28.7625 39.6962 29.0235" stroke="black" stroke-width="0.5" stroke-linecap="round"/>
<path d="M30.3125 25.4216C30.7313 24.7358 31.4685 24.2359 32.0686 23.8852C32.5479 23.6052 33.045 23.4688 33.3515 24.118C33.3922 24.2043 33.4755 24.4631 33.4081 24.4129C33.1906 24.2509 33.1718 23.6279 33.1759 23.3575C33.1857 22.705 33.5105 22.4885 33.9498 22.4885C34.0826 22.4885 34.1658 22.4774 34.2236 22.6281" stroke="black" stroke-width="0.5" stroke-linecap="round"/>
</svg>
