<svg width="44" height="44" viewBox="0 0 44 44" fill="none" xmlns="http://www.w3.org/2000/svg">
<path d="M16.4208 35.675H27.7548C27.8118 34.5928 28.0966 33.226 28.7231 32.3147C32.8807 26.9039 33.1655 21.7781 33.1655 21.4363C33.2225 15.2851 28.2105 10.3301 22.1162 10.3301C15.9652 10.3301 10.9531 15.2851 10.9531 21.4363C10.9531 21.7781 11.2379 26.9039 15.3956 32.3147C16.0791 33.226 16.3069 34.6498 16.4208 35.675Z" stroke="black" stroke-width="1.86398" stroke-linejoin="round"/>
<path d="M19.779 35.6731L18.0703 23.4277" stroke="black" stroke-width="1.86398" stroke-linejoin="round"/>
<path d="M24.3945 35.6731L26.1032 23.4277" stroke="black" stroke-width="1.86398" stroke-linejoin="round"/>
<path d="M18.1289 24.0547L19.4389 25.1938L20.7489 24.0547L22.0588 25.1938L23.4258 24.0547L24.7358 25.1938L26.0456 24.0547" stroke="black" stroke-width="1.86398" stroke-linejoin="round"/>
<path d="M15.3945 39.3203H28.779" stroke="black" stroke-width="1.86398" stroke-linejoin="round"/>
<path d="M17.9023 42.8516H26.2747" stroke="black" stroke-width="1.86398" stroke-linejoin="round"/>
<path d="M18.8125 39.0346V35.959" stroke="black" stroke-width="1.86398" stroke-linejoin="round"/>
</svg>
