<svg width="44" height="44" viewBox="0 0 44 44" fill="none" xmlns="http://www.w3.org/2000/svg">
<path d="M22.6625 6.19961C21.9737 6.19961 21.457 5.68298 21.457 4.99413V1.20548C21.457 0.516635 21.9737 0 22.6625 0C23.3514 0 23.868 0.516635 23.868 1.20548V5.08024C23.868 5.68298 23.3514 6.19961 22.6625 6.19961Z" fill="black"/>
<path d="M14.6539 8.00873C14.2234 8.00873 13.879 7.83652 13.6206 7.40599L11.7263 4.04787C11.3819 3.44514 11.5541 2.75629 12.1569 2.41187C12.7596 2.06745 13.4484 2.23966 13.7928 2.8424L15.6872 6.20051C16.0316 6.80325 15.8594 7.4921 15.2567 7.83652C15.0845 8.00873 14.9123 8.00873 14.6539 8.00873Z" fill="black"/>
<path d="M8.71536 13.6035C8.54315 13.6035 8.28483 13.5174 8.11262 13.4313L4.75451 11.537C4.15177 11.1926 3.97956 10.5037 4.32398 9.90099C4.6684 9.29825 5.35724 9.12604 5.95998 9.47046L9.3181 11.3648C9.92084 11.7092 10.0931 12.3981 9.74863 13.0007C9.49031 13.4313 9.14589 13.6035 8.71536 13.6035Z" fill="black"/>
<path d="M6.3029 21.4403H2.42813C1.73929 21.4403 1.22266 20.9236 1.22266 20.2348C1.22266 19.5459 1.73929 19.0293 2.42813 19.0293H6.3029C6.99174 19.0293 7.50837 19.5459 7.50837 20.2348C7.50837 20.9236 6.90564 21.4403 6.3029 21.4403Z" fill="black"/>
<path d="M4.75178 31.3418C4.32125 31.3418 3.97683 31.1696 3.71851 30.739C3.37409 30.1363 3.5463 29.4475 4.14904 29.1031L7.50715 27.2087C8.10989 26.8643 8.79874 27.0365 9.14316 27.6392C9.48758 28.242 9.31537 28.9309 8.71263 29.2753L5.35452 31.1696C5.1823 31.2556 4.92399 31.3418 4.75178 31.3418Z" fill="black"/>
<path d="M38.7623 32.377C38.5901 32.377 38.3317 32.2908 38.1595 32.2048L34.8014 30.3104C34.1986 29.966 34.0264 29.2772 34.3709 28.6744C34.7153 28.0717 35.4041 27.8995 36.0069 28.2439L39.365 30.1382C39.9678 30.4826 40.14 31.1715 39.7956 31.7742C39.6234 32.2048 39.1928 32.377 38.7623 32.377Z" fill="black"/>
<path d="M41.6936 22.6453H37.8188C37.1299 22.6453 36.6133 22.1287 36.6133 21.4399C36.6133 20.751 37.1299 20.2344 37.8188 20.2344H41.6936C42.3824 20.2344 42.899 20.751 42.899 21.4399C42.899 22.1287 42.3824 22.6453 41.6936 22.6453Z" fill="black"/>
<path d="M36.0096 14.6387C35.579 14.6387 35.2346 14.4665 34.9763 14.0359C34.6319 13.4332 34.8041 12.7444 35.4068 12.3999L38.765 10.5056C39.3676 10.1612 40.0565 10.3334 40.4009 10.9361C40.7453 11.5389 40.5731 12.2277 39.9704 12.5722L36.6123 14.4665C36.4401 14.6387 36.2678 14.6387 36.0096 14.6387Z" fill="black"/>
<path d="M30.4979 8.69624C30.3257 8.69624 30.0673 8.61014 29.8951 8.52403C29.2924 8.17961 29.1202 7.49076 29.4646 6.88803L31.3589 3.5299C31.7034 2.92716 32.3922 2.75495 32.9949 3.09937C33.5977 3.44379 33.7699 4.13264 33.4255 4.73537L31.5311 8.0935C31.2728 8.43793 30.9283 8.69624 30.4979 8.69624Z" fill="black"/>
<path d="M16.4208 35.675H27.7548C27.8118 34.5928 28.0966 33.226 28.7231 32.3147C32.8807 26.9039 33.1655 21.7781 33.1655 21.4363C33.2225 15.2851 28.2105 10.3301 22.1162 10.3301C15.9652 10.3301 10.9531 15.2851 10.9531 21.4363C10.9531 21.7781 11.2379 26.9039 15.3956 32.3147C16.0791 33.226 16.3069 34.6498 16.4208 35.675Z" fill="#FFD642" stroke="black" stroke-width="1.86398" stroke-linejoin="round"/>
<path d="M19.779 35.6731L18.0703 23.4277" stroke="black" stroke-width="1.86398" stroke-linejoin="round"/>
<path d="M24.3945 35.6731L26.1032 23.4277" stroke="black" stroke-width="1.86398" stroke-linejoin="round"/>
<path d="M18.1289 24.0547L19.4389 25.1938L20.7489 24.0547L22.0588 25.1938L23.4258 24.0547L24.7358 25.1938L26.0456 24.0547" stroke="black" stroke-width="1.86398" stroke-linejoin="round"/>
<path d="M15.3945 39.3203H28.779" stroke="black" stroke-width="1.86398" stroke-linejoin="round"/>
<path d="M17.9023 42.8516H26.2747" stroke="black" stroke-width="1.86398" stroke-linejoin="round"/>
<path d="M18.8125 39.0346V35.959" stroke="black" stroke-width="1.86398" stroke-linejoin="round"/>
</svg>
