<svg width="47" height="39" viewBox="0 0 47 39" fill="none" xmlns="http://www.w3.org/2000/svg">
<path d="M21.0612 1.48681C21.6901 0.973763 22.5429 0.685547 23.432 0.685547C24.3212 0.685547 25.174 0.973763 25.8028 1.48681L45.9227 17.907C46.5336 18.4231 46.8716 19.1144 46.8639 19.8319C46.8563 20.5495 46.5036 21.2359 45.8819 21.7433C45.2602 22.2507 44.4191 22.5385 43.5399 22.5448C42.6607 22.551 41.8136 22.2751 41.1811 21.7766L23.432 7.29133L5.68291 21.7766C5.05047 22.2751 4.20341 22.551 3.32418 22.5448C2.44495 22.5385 1.6039 22.2507 0.982166 21.7433C0.360433 21.2359 0.00776703 20.5495 0.000126764 19.8319C-0.0075135 19.1144 0.330484 18.4231 0.941318 17.907L21.0612 1.48681ZM23.432 23.7115L5.68291 38.1968C5.05047 38.6953 4.20341 38.9711 3.32418 38.9649C2.44495 38.9587 1.6039 38.6708 0.982166 38.1634C0.360433 37.656 0.00776703 36.9696 0.000126764 36.2521C-0.0075135 35.5345 0.330484 34.8432 0.941318 34.3271L21.0612 17.907C21.6901 17.3939 22.5429 17.1057 23.432 17.1057C24.3212 17.1057 25.174 17.3939 25.8028 17.907L45.9227 34.3271C46.5336 34.8432 46.8716 35.5345 46.8639 36.2521C46.8563 36.9696 46.5036 37.656 45.8819 38.1634C45.2602 38.6708 44.4191 38.9587 43.5399 38.9649C42.6607 38.9711 41.8136 38.6953 41.1811 38.1968L23.432 23.7115Z" fill="#FDFDFD"/>
</svg>
