<svg width="64" height="64" viewBox="0 0 64 64" fill="none" xmlns="http://www.w3.org/2000/svg">
<path d="M31.9647 1.63201e-05C49.6268 -0.0176356 63.9823 14.2863 64 31.9206C64.0176 49.6607 49.7268 63.9764 31.9706 64C14.3673 64.0235 0.00588343 49.6549 0 32.0029C0 14.351 14.3144 0.0176682 31.9647 1.63201e-05ZM33.0943 5.41328C32.9296 5.39563 32.7943 5.37209 32.6531 5.37209C26.652 5.41916 21.1156 7.01959 16.2265 10.5323C5.22448 18.4404 1.88858 33.1032 8.53098 44.9241C13.2024 53.2441 20.439 57.9395 29.9702 58.7044C38.6894 59.4046 46.0614 56.3508 51.8742 49.8078C56.5045 44.5946 58.6049 38.3694 58.8049 31.4499C58.8226 30.8438 58.5578 30.7614 58.0518 30.7614C52.4743 30.7732 46.8968 30.7673 41.3193 30.7673C39.5543 30.7673 39.5837 30.7673 39.5837 32.4913C39.5837 33.1032 39.7602 33.2856 40.3839 33.2798C45.2789 33.2503 50.1739 33.2621 55.0689 33.268C55.3631 33.268 55.6573 33.2915 56.0574 33.3092C55.9161 34.5742 55.8573 35.7569 55.6455 36.9043C54.6394 42.2411 52.0095 46.6834 47.8441 50.1197C40.8075 55.9272 32.7943 57.6453 24.175 54.6268C15.1381 51.4612 9.79002 44.8535 8.28387 35.3627C7.28368 29.061 8.78396 23.2182 12.5435 18.0697C17.1502 11.7621 23.4631 8.44941 31.241 7.91397C31.8882 7.86689 32.8296 7.95514 33.0943 7.59034C33.4179 7.14315 33.1767 6.28409 33.1767 5.60155C33.1708 5.56625 33.1355 5.52507 33.0943 5.41328ZM30.7115 31.9382C30.7233 31.9382 30.735 31.9382 30.7527 31.9382C30.7527 36.3571 30.7645 40.7818 30.7409 45.2007C30.7351 45.8362 30.9292 45.995 31.5411 45.9833C33.6591 45.9421 35.7713 45.9597 37.8893 45.9538C39.7367 45.948 39.7073 45.948 39.7132 44.1063C39.7132 43.4884 39.4837 43.3708 38.9248 43.3825C37.3245 43.412 35.7242 43.359 34.1298 43.4002C33.465 43.4179 33.3061 43.2001 33.312 42.5647C33.3473 34.7096 33.3591 26.8545 33.3767 18.9994C33.3767 17.7284 33.4473 17.9285 32.2706 17.9461C32.0118 17.952 31.747 17.9814 31.494 17.952C30.8704 17.8755 30.6997 18.1285 30.7056 18.7464C30.7233 23.1417 30.7115 27.5429 30.7115 31.9382ZM25.9518 21.8825C25.9695 19.6348 24.1691 17.7931 21.9158 17.7578C19.6919 17.7225 17.8033 19.5525 17.7738 21.7884C17.7385 24.036 19.5565 25.913 21.7864 25.9424C24.0809 25.9719 25.9342 24.1714 25.9518 21.8825Z" fill="#333D4B"/>
<path d="M33.0952 5.41182C33.1364 5.52361 33.1717 5.56479 33.1717 5.61186C33.1717 6.29433 33.4188 7.15332 33.0893 7.60046C32.8245 7.96523 31.8832 7.87697 31.236 7.92404C23.4522 8.45943 17.1393 11.7718 12.5385 18.0789C8.77895 23.2269 7.27867 29.0632 8.27886 35.3703C9.78502 44.8543 15.1331 51.4673 24.17 54.6326C32.7833 57.6508 40.7966 55.9329 47.8391 50.1259C52.0045 46.6841 54.6344 42.248 55.6405 36.9117C55.8582 35.7644 55.9111 34.5819 56.0523 33.3169C55.6523 33.2993 55.3581 33.2757 55.0639 33.2757C50.1689 33.2757 45.2739 33.264 40.3789 33.2875C39.7552 33.2934 39.5787 33.111 39.5787 32.4991C39.5787 30.7694 39.5493 30.7753 41.3143 30.7753C46.8918 30.7753 52.4693 30.7812 58.0468 30.7694C58.5528 30.7694 58.8175 30.8459 58.7999 31.4578C58.6057 38.3767 56.4995 44.6073 51.8692 49.8141C46.0564 56.3565 38.6844 59.4158 29.9652 58.7098C20.434 57.945 13.2033 53.25 8.52596 44.9308C1.88945 33.111 5.22535 18.4495 16.2215 10.5422C21.1106 7.02388 26.6469 5.42946 32.648 5.38239C32.7951 5.36474 32.9304 5.39417 33.0952 5.41182Z" fill="white"/>
<path d="M30.7131 31.9358C30.7131 27.5408 30.7249 23.14 30.7013 18.7451C30.6954 18.1274 30.8661 17.8744 31.4897 17.9509C31.7427 17.9803 32.0074 17.9508 32.2663 17.945C33.443 17.9332 33.3783 17.7273 33.3724 18.9981C33.3548 26.8525 33.3489 34.7069 33.3077 42.5612C33.3018 43.1967 33.4607 43.4202 34.1255 43.3967C35.7258 43.3496 37.3261 43.4085 38.9205 43.3791C39.4794 43.3673 39.7089 43.4849 39.7089 44.1027C39.703 45.9383 39.7324 45.9442 37.885 45.9501C35.767 45.956 33.6489 45.9383 31.5368 45.9795C30.9249 45.9913 30.7307 45.8324 30.7366 45.197C30.766 40.7786 30.7484 36.3542 30.7484 31.9358C30.7366 31.9358 30.7249 31.9358 30.7131 31.9358Z" fill="white"/>
<path d="M25.9525 21.881C25.9349 24.164 24.0814 25.9645 21.7808 25.9351C19.5508 25.9057 17.7385 24.0287 17.7679 21.781C17.8032 19.551 19.6861 17.7152 21.9102 17.7505C24.1697 17.7976 25.9702 19.6334 25.9525 21.881Z" fill="white"/>
</svg>
