<svg width="41" height="41" viewBox="0 0 41 41" fill="none" xmlns="http://www.w3.org/2000/svg">
<g id="sns_icon_youtube">
<path id="Vector" d="M16.7913 15.2901L25.3487 20.1531L16.7913 25.0161V15.2901ZM40.2703 4.31468V35.9557C40.2703 38.3377 38.3377 40.2703 35.9557 40.2703H4.31468C1.93262 40.2703 0 38.3377 0 35.9557V4.31468C0 1.93262 1.93262 0 4.31468 0H35.9557C38.3377 0 40.2703 1.93262 40.2703 4.31468ZM36.495 20.1621C36.495 20.1621 36.495 14.8047 35.8118 12.2339C35.4343 10.8137 34.3287 9.69904 32.9174 9.3215C30.3735 8.62936 20.1352 8.62936 20.1352 8.62936C20.1352 8.62936 9.89679 8.62936 7.35293 9.3215C5.94167 9.69904 4.83604 10.8137 4.4585 12.2339C3.77534 14.7958 3.77534 20.1621 3.77534 20.1621C3.77534 20.1621 3.77534 25.5195 4.4585 28.0904C4.83604 29.5106 5.94167 30.5803 7.35293 30.9578C9.89679 31.641 20.1352 31.641 20.1352 31.641C20.1352 31.641 30.3735 31.641 32.9174 30.9488C34.3287 30.5713 35.4343 29.5016 35.8118 28.0814C36.495 25.5195 36.495 20.1621 36.495 20.1621Z" fill="#4593FC"/>
</g>
</svg>
