<svg width="41" height="41" viewBox="0 0 41 41" fill="none" xmlns="http://www.w3.org/2000/svg">
<g id="sns_icon_naver">
<path id="Vector" d="M1.43823 0C1.06369 0 0.730349 0.142321 0.43821 0.426973C0.14607 0.711625 0 1.04871 0 1.43823V38.8321C0 39.2216 0.14607 39.5587 0.43821 39.8434C0.730349 40.128 1.06369 40.2703 1.43823 40.2703H38.8321C39.2067 40.2703 39.54 40.128 39.8321 39.8434C40.1243 39.5587 40.2703 39.2216 40.2703 38.8321V1.43823C40.2703 1.04871 40.1243 0.711625 39.8321 0.426973C39.54 0.142321 39.2067 0 38.8321 0H1.43823ZM9.01138 10.0676H16.7643L23.506 20.1352V10.0676H31.2589V30.2027H23.506L16.7643 20.1352V30.2027H9.01138V10.0676Z" fill="#4593FC"/>
</g>
</svg>
