<svg width="41" height="41" viewBox="0 0 41 41" fill="none" xmlns="http://www.w3.org/2000/svg">
<g id="sns_icon_facebook">
<path id="Vector" d="M38.0476 0H2.2227C0.995013 0 0 0.995013 0 2.2227V38.0482C0 39.2753 0.995013 40.2703 2.2227 40.2703H21.5094V24.6756H16.2614V18.5982H21.5094V14.1159C21.5094 8.91429 24.6863 6.0825 29.3263 6.0825C31.549 6.0825 33.4591 6.24749 34.0161 6.32188V11.7578L30.7979 11.7595C28.2743 11.7595 27.786 12.9587 27.786 14.7182V18.5987H33.8041L33.0206 24.6762H27.786V40.2703H38.0482C39.2753 40.2703 40.2703 39.2753 40.2703 38.0476V2.2227C40.2703 0.995013 39.2753 0 38.0476 0Z" fill="#4593FC"/>
</g>
</svg>
