<svg width="41" height="41" viewBox="0 0 41 41" fill="none" xmlns="http://www.w3.org/2000/svg">
<g id="sns_icon_company">
<path id="Vector" d="M4.47448 0H35.7959C36.9826 0 38.1207 0.471417 38.9598 1.31055C39.7989 2.14967 40.2703 3.28778 40.2703 4.47448V35.7959C40.2703 36.9826 39.7989 38.1207 38.9598 38.9598C38.1207 39.7989 36.9826 40.2703 35.7959 40.2703H4.47448C3.28778 40.2703 2.14967 39.7989 1.31055 38.9598C0.471417 38.1207 0 36.9826 0 35.7959V4.47448C0 3.28778 0.471417 2.14967 1.31055 1.31055C2.14967 0.471417 3.28778 0 4.47448 0ZM26.8469 22.3724V8.94896H13.4234V22.3724H20.1352L15.6607 31.3214H22.3724L26.8469 22.3724Z" fill="#FDFDFD"/>
</g>
</svg>
