<svg width="41" height="41" viewBox="0 0 41 41" fill="none" xmlns="http://www.w3.org/2000/svg">
<g id="sns_icon_insta">
<path id="Vector" d="M20.1352 15.3405C19.1869 15.3408 18.2601 15.6223 17.4719 16.1494C16.6836 16.6765 16.0694 17.4254 15.7067 18.3016C15.3441 19.1777 15.2494 20.1417 15.4346 21.0717C15.6198 22.0016 16.0766 22.8558 16.7472 23.5262C17.4179 24.1965 18.2722 24.653 19.2022 24.8379C20.1323 25.0227 21.0962 24.9277 21.9722 24.5647C22.8482 24.2018 23.597 23.5872 24.1237 22.7988C24.6505 22.0103 24.9316 21.0834 24.9316 20.1352C24.9307 18.8635 24.425 17.6443 23.5256 16.7452C22.6263 15.8462 21.4068 15.341 20.1352 15.3405ZM31.3452 11.655C31.1012 11.0364 30.7326 10.4746 30.2623 10.0044C29.7921 9.53417 29.2303 9.16558 28.6117 8.9215C26.724 8.17632 22.2296 8.34351 20.1352 8.34351C18.0407 8.34351 13.5508 8.17002 11.6577 8.9215C11.0391 9.16558 10.4773 9.53417 10.0071 10.0044C9.53687 10.4746 9.16828 11.0364 8.92419 11.655C8.17991 13.5427 8.34621 18.0416 8.34621 20.1343C8.34621 22.2269 8.17991 26.7204 8.92779 28.6144C9.17188 29.233 9.54046 29.7948 10.0107 30.265C10.4809 30.7353 11.0427 31.1038 11.6613 31.3479C13.549 32.0931 18.0434 31.9259 20.1388 31.9259C22.2341 31.9259 26.7222 32.0994 28.6153 31.3479C29.2339 31.1038 29.7957 30.7353 30.2659 30.265C30.7362 29.7948 31.1047 29.233 31.3488 28.6144C32.0994 26.7267 31.9268 22.2278 31.9268 20.1352C31.9268 18.0425 32.0994 13.5499 31.3488 11.6559L31.3452 11.655ZM20.1352 27.5061C18.6773 27.5061 17.2522 27.0738 16.0401 26.2639C14.828 25.4539 13.8832 24.3027 13.3253 22.9559C12.7674 21.609 12.6215 20.127 12.9059 18.6972C13.1903 17.2674 13.8923 15.954 14.9231 14.9231C15.954 13.8923 17.2674 13.1903 18.6972 12.9059C20.127 12.6215 21.609 12.7674 22.9559 13.3253C24.3027 13.8832 25.4539 14.828 26.2639 16.0401C27.0738 17.2522 27.5061 18.6773 27.5061 20.1352C27.5073 21.1035 27.3174 22.0625 26.9474 22.9573C26.5774 23.8521 26.0345 24.6651 25.3498 25.3498C24.6651 26.0345 23.8521 26.5774 22.9573 26.9474C22.0625 27.3174 21.1035 27.5073 20.1352 27.5061ZM27.8099 14.1755C27.4696 14.1757 27.1369 14.0749 26.8538 13.886C26.5708 13.6971 26.3501 13.4284 26.2197 13.1141C26.0894 12.7997 26.0552 12.4537 26.1215 12.1199C26.1878 11.7861 26.3515 11.4795 26.5921 11.2388C26.8327 10.9981 27.1393 10.8341 27.473 10.7677C27.8068 10.7012 28.1528 10.7352 28.4672 10.8654C28.7816 10.9956 29.0504 11.2161 29.2395 11.4991C29.4286 11.782 29.5295 12.1147 29.5295 12.455C29.5304 12.681 29.4867 12.905 29.4009 13.1141C29.3151 13.3231 29.1889 13.5132 29.0295 13.6734C28.8701 13.8336 28.6806 13.9607 28.4719 14.0475C28.2632 14.1343 28.0395 14.179 27.8135 14.1791L27.8099 14.1755ZM35.9557 0H4.31468C3.17035 0 2.0729 0.454581 1.26374 1.26374C0.454581 2.0729 0 3.17035 0 4.31468L0 35.9557C0 37.1 0.454581 38.1974 1.26374 39.0066C2.0729 39.8158 3.17035 40.2703 4.31468 40.2703H35.9557C37.1 40.2703 38.1974 39.8158 39.0066 39.0066C39.8158 38.1974 40.2703 37.1 40.2703 35.9557V4.31468C40.2703 3.17035 39.8158 2.0729 39.0066 1.26374C38.1974 0.454581 37.1 0 35.9557 0ZM34.4168 26.0678C34.3008 28.3717 33.7749 30.4131 32.0931 32.0904C30.4113 33.7678 28.3717 34.3044 26.0705 34.4141C23.6966 34.548 16.5792 34.548 14.2052 34.4141C11.9013 34.2981 9.86713 33.7713 8.18261 32.0904C6.49809 30.4095 5.96864 28.3672 5.85897 26.0678C5.72504 23.693 5.72504 16.5747 5.85897 14.2025C5.97493 11.8986 6.49449 9.85724 8.18261 8.17991C9.87073 6.50258 11.9103 5.97223 14.2052 5.86257C16.5792 5.72863 23.6966 5.72863 26.0705 5.86257C28.3744 5.97853 30.4149 6.50528 32.0931 8.1862C33.7713 9.86713 34.3071 11.9094 34.4168 14.2133C34.5507 16.5792 34.5507 23.6912 34.4168 26.0678Z" fill="#4593FC"/>
</g>
</svg>
