<svg width="400" height="150" viewBox="0 0 400 150" fill="none" xmlns="http://www.w3.org/2000/svg">
<g clip-path="url(#clip0_1363_15478)">
<path d="M99.1653 77.169C97.6509 77.3739 96.3258 77.7049 95.1899 78.1466C94.054 78.5883 93.1391 79.1718 92.4607 79.8975C91.7668 80.6227 91.4355 81.5377 91.4355 82.6259C91.4355 84.203 91.9402 85.2282 92.934 85.6694C93.9279 86.1111 95.0166 86.332 96.1838 86.332C98.4556 86.332 100.396 85.6063 102.005 84.1714C103.614 82.7206 104.64 80.8751 105.049 78.6039L105.365 76.8535H104.024C102.305 76.8535 100.696 76.9637 99.1812 77.169H99.1653Z" fill="#FDFDFD"/>
<path d="M312.794 122.227L316.706 103.979C317.526 104.327 318.394 104.611 319.277 104.863C320.176 105.099 321.139 105.226 322.165 105.226C324.704 105.226 326.692 104.689 328.096 103.632C329.5 102.56 330.651 101.204 331.551 99.5638L332.166 98.4279L319.167 44.9006H344.755L348.052 74.5976H348.462L361.145 44.9006H385.897L354.441 102.45C352.579 105.888 350.749 108.932 348.919 111.581C347.089 114.231 345.054 116.455 342.783 118.284C342.152 118.789 341.505 119.246 340.827 119.688L399.968 114.262L389.509 0L77.3626 28.6721L69.459 72.8472C68.9067 76.0805 68.1021 79.3609 67.0297 82.6883C65.9569 86.0317 64.3795 89.0602 62.281 91.8202C60.1831 94.5641 57.359 96.8193 53.8256 98.5702C50.2761 100.321 45.7643 101.204 40.2587 101.204C33.4437 101.204 27.812 99.5953 23.3475 96.3621C18.8831 93.1288 15.7911 88.5869 14.0716 82.7514L35.9363 75.0238C36.1413 76.1907 36.6304 77.2314 37.3876 78.1148C38.1448 79.0138 39.2017 79.4555 40.59 79.4555C42.1675 79.4555 43.3033 78.8721 43.9975 77.7047C44.6916 76.5378 45.1964 75.0553 45.5434 73.2729L53.0523 30.9274L0 35.7691L10.4906 150L312.81 122.227H312.778H312.794ZM122.637 95.416C122.543 96.9931 122.48 98.2386 122.48 99.1221H102.682C102.682 98.6488 102.697 97.876 102.729 96.8038C102.761 95.7471 102.808 94.8636 102.887 94.17H102.682C100.694 96.4412 98.4226 98.0653 95.8667 99.075C93.3272 100.068 90.5031 100.573 87.4113 100.573C85.4867 100.573 83.5621 100.305 81.6374 99.7531C79.7128 99.2007 77.9774 98.3648 76.4318 97.2295C74.8856 96.0941 73.6236 94.6117 72.6615 92.7978C71.699 90.9843 71.2097 88.7917 71.2097 86.2526C71.2097 82.0578 72.1564 78.6036 74.0497 75.8912C75.9426 73.1783 78.4826 71.0338 81.6846 69.4407C84.8872 67.8636 88.5785 66.7438 92.7749 66.0972C96.9713 65.4507 101.372 65.1191 105.979 65.1191C106.042 64.8512 106.089 64.6148 106.089 64.4571V63.9998C106.089 62.6276 105.49 61.5709 104.291 60.8452C103.092 60.12 101.514 59.7569 99.5897 59.7569C97.3815 59.7569 95.2518 60.1831 93.201 61.0505C91.1344 61.9179 89.241 63.0693 87.5215 64.5041L77.4097 52.9598C79.0662 51.3826 80.9277 49.9947 83.0257 48.7804C85.1236 47.5818 87.2692 46.5566 89.478 45.7365C91.6708 44.9164 93.9108 44.2856 96.1826 43.8755C98.4538 43.4655 100.615 43.2604 102.682 43.2604C110.932 43.2604 117.132 44.9322 121.297 48.2599C125.462 51.5876 127.544 56.2872 127.544 62.3276C127.544 64.8672 127.275 67.7214 126.724 70.8915L123.222 90.795C122.953 92.309 122.764 93.8545 122.653 95.4315L122.637 95.416ZM192.428 99.1221L197.476 70.3552C197.618 69.8033 197.697 69.2043 197.728 68.5572C197.76 67.9107 197.776 67.3748 197.776 66.9647C197.776 63.8105 196.372 62.2174 193.548 62.2174C192.033 62.2174 190.74 62.9586 189.683 64.441C188.61 65.9234 187.837 67.9267 187.364 70.4814L182.316 99.1536H159.205L164.253 70.5921C164.395 70.0402 164.474 69.4722 164.506 68.8888C164.537 68.3053 164.553 67.8476 164.553 67.501C164.553 65.9235 164.19 64.6464 163.464 63.6843C162.738 62.7222 161.697 62.2335 160.325 62.2335C158.952 62.2335 157.817 62.8955 156.712 64.1886C155.608 65.4978 154.788 67.5952 154.236 70.4814L149.188 99.1536H126.076L133.712 55.5305C133.98 54.2214 134.28 52.5341 134.595 50.4836C134.911 48.4176 135.132 46.5724 135.274 44.9164H157.549C157.486 45.9415 157.375 47.1401 157.233 48.4807C157.091 49.8213 156.965 50.9725 156.823 51.9347H157.233C158.747 49.8686 160.846 47.976 163.527 46.257C166.209 44.5379 169.412 43.6863 173.119 43.6863C177.11 43.6863 180.281 44.4117 182.663 45.8469C185.045 47.2821 186.812 49.2535 187.979 51.7298C189.762 49.5374 191.954 47.6448 194.526 46.0519C197.097 44.4748 200.347 43.6863 204.275 43.6863C207.43 43.6863 210.144 44.2067 212.368 45.2318C214.608 46.2569 216.422 47.5975 217.842 49.2535C219.246 50.9095 220.287 52.7545 220.934 54.8209C221.581 56.8867 221.912 58.9526 221.912 61.0029C221.912 61.965 221.865 62.88 221.754 63.7314C221.644 64.5988 221.533 65.4347 221.391 66.255L215.617 99.1536H192.412L192.428 99.1221ZM287.427 99.1221L292.475 70.3552C292.617 69.8033 292.696 69.2043 292.728 68.5572C292.759 67.9107 292.775 67.3748 292.775 66.9647C292.775 63.8105 291.371 62.2174 288.547 62.2174C287.033 62.2174 285.739 62.9586 284.682 64.441C283.609 65.9234 282.836 67.9267 282.363 70.4814L277.315 99.1536H254.204L259.252 70.5921C259.394 70.0402 259.473 69.4722 259.505 68.8888C259.536 68.3053 259.552 67.8476 259.552 67.501C259.552 65.9235 259.189 64.6464 258.464 63.6843C257.738 62.7222 256.696 62.2335 255.324 62.2335C253.952 62.2335 252.816 62.8955 251.712 64.1886C250.607 65.4978 249.787 67.5952 249.235 70.4814L244.187 99.1536H221.076L228.711 55.5305C228.98 54.2214 229.279 52.5341 229.594 50.4836C229.91 48.4176 230.131 46.5724 230.273 44.9164H252.548C252.485 45.9415 252.374 47.1401 252.232 48.4807C252.09 49.8213 251.964 50.9725 251.822 51.9347H252.232C253.747 49.8686 255.845 47.976 258.527 46.257C261.208 44.5379 264.411 43.6863 268.118 43.6863C272.109 43.6863 275.28 44.4117 277.662 45.8469C280.044 47.2821 281.811 49.2535 282.978 51.7298C284.761 49.5374 286.954 47.6448 289.525 46.0519C292.096 44.4748 295.346 43.6863 299.274 43.6863C302.429 43.6863 305.143 44.2067 307.367 45.2318C309.607 46.2569 311.422 47.5975 312.841 49.2535C314.245 50.9095 315.286 52.7545 315.933 54.8209C316.58 56.8867 316.911 58.9526 316.911 61.0029C316.911 61.965 316.864 62.88 316.753 63.7314C316.643 64.5988 316.533 65.4347 316.391 66.255L310.617 99.1536H287.411L287.427 99.1221Z" fill="#FDFDFD"/>
</g>
<defs>
<clipPath id="clip0_1363_15478">
<rect width="400" height="150" fill="white"/>
</clipPath>
</defs>
</svg>
